<svg xmlns="http://www.w3.org/2000/svg" viewBox="0 0 596.34 613.82"><defs><style>.cls-1{fill:#c0c0c1;}</style></defs><title>Asset 1</title><g id="Layer_2" data-name="Layer 2"><g id="Layer_1-2" data-name="Layer 1"><path class="cls-1" d="M34.5,364.52c.06-2,.44-2.5.19-4.56.52.39.31-1.07.74-.92a24.76,24.76,0,0,1,.32,4.51c-.81,0-.64,1.06-1.25,1m.31-45.71c.5-.74,1.06-.92,1.31.15-.33.89-.31,2.48.13,1.27a8.18,8.18,0,0,1,0,2c-.39-.22-.51.85-.58,2-.65-1.06-1.18-2.4-.91-5.49M32,359.69c.19,1.53,1,.67,1,2.85-.56,0-.93-.92-1-2.85m-2.52-4.9c.37-.72-.29-2.57,0-2.94s.31,3.1,0,2.94m1.85-49.46c.88.44,1.17-3.26,1.91-3.9.32.39-.32,1.28-.37,2,.11,1,.48-.43.85-.21-.34,1.75-.39,5.25-1,8.68-.47.16-.84,1-1.34,1.08a13.43,13.43,0,0,1,.14-3.8c-.42-.58-.74-1.37-.19-3.86m-4.67,34.3c.23-1.25,0-1.63.19-2.52.32.23.68.39.62,1.72-.25.29-.5.7-.81.8M54.54,233.27c.24,0,0,.55.29.58-1,1.54-1.87,4-2.72,3.84-.16-1.45,1.44-2.81,2.43-4.42m-22.6,57.07c.35.19.68,0,1-.65-.17,1.67-.74,2.18-.81,4.18-.4.18-.75,1.16-1.09,1.93-.27-.63.75-3.55.93-5.46M456.8,199.81l-.32.24c-.69-.94-.7-.56-1-1.34a2.4,2.4,0,0,1,1.34,1.1M24.16,361.07c.36-1.57,1.06-2.8,1.22-3.94.23-.08.3.51.55.42a6,6,0,0,1-.7,1.72c.48.65.19,2.39.48,3a11.71,11.71,0,0,1-.78,2.16,14.08,14.08,0,0,0-.77-3.37M82,186.9c1.52-1.63,1.72-.79,1.86-.12-1,.79-2,1.08-1.86.12M49,236.13c.64,0,.16,1.06.54,1.29-.73.8-.58.71-1.25,2.21-.31.07-.75,1-1,.5-.53,1.12-.35,1.87-1.19,2.8-.12-1.05,1.73-5.09,2.87-6.8m439.07,19.1a21.56,21.56,0,0,0-2.19-5.62c.29-.12.66.54.91.11,1.54,2.61,2.6,6.41,1.28,5.51M467,213.14c-.68.48-3-2.49-4-4.58.51-1.22,3.85,2.84,4,4.58M49.37,234.87c.28-.62.46-.61.71-1.08.39,0,.11.74-.43,1.73-.32,0-.19-.43-.28-.65M24.1,358.06c.12-1.36-.21-3.19,0-4.73-1.38-3.68-.74-9.57-1.12-15.88l.79,0c.18,2.33.64,2.71.57,5.14.33,0,.64.08.67-.85s-.7-.34-.5-2.18c.9-.12,1.24,2.38,2,.49-.11,1.85.6,1.15,1,1.27.11,1.7.72,2.22.11,4.66-.74-1.11-.74.48-1,1.7-.36.31.06-2-.3-1.69-.45-.3-.19,1.55-.5,1.7s-.26-.59-.28-1.26c-.55-.06-.66,2.77-.21,3.43,0,.9-.56.17-.78.44l0,1.27c.2,1,1-.18,1,1.69-.4.2-.4-1.45-.68-.39,0,1.19.38,1.18.72,1.24,0,1.19-.69.63-.42,2.56-.74-.94-.58.89-1.12,1.37M477.86,230.18c.62.95.16.85.59,1.65-.52-.15-.45-.52-.94-1.46ZM460.28,202a8.48,8.48,0,0,1,1.17,1.86,2.86,2.86,0,0,1-1.34-1.18c-.12-.38,0-.54.17-.68m15.53,23.86c.85,1.6.45,2.07,0,2.45a12.64,12.64,0,0,1-1-2.39c.3-.17.58-.5,1-.06M22.67,328.34c0-2.15.82-.55,1-1.66.24,1.19-.67,2.85-1,1.66M484.08,242c-.62-.55-1.14-.3-1.74-.59-.59-1.21-.29-1.44-1.07-2.81.26-1.64,2.35.11,2.81,3.4m-32-51.59c.83,1.47-1.07,1.08-2.49-.72.4-.19-.06-.94.54-1,.58.4,1.45,1.45,2,1.72M311.52,584c-1.21.16-2.92.57-2.64,0,1.35-.23,2.3-.28,2.64,0m69.42-452.17c0-.3-1.4-.88-.87-1.07,1.87.53,2.42,1.26,4.24,2.2,5.58,2.85,10,3,12.4,7.19-4.79-3.5-10.62-6.08-15.77-8.32m-9.76-7.56c1.75.85-.45.33,0,1,1.24.65,1.27.16,2.15.46,1.23,1.36,4.38,3.58,5.82,3,1.24,1-1.37.14-1,1-1.27-.26-3.54-1.48-4.56-1.46-1-.57-1.31-1.37-.36-1.21-4.34-2.07-7.29-4.44-12.2-6.7.89.21,1.8.42,2.57.55a57,57,0,0,0,7.6,3.37M81.62,182.53c1.65.5-3.47,6.93-6.36,10-1.09-1.77,1.91-7.14,6.36-10M90.21,172c1.25-1.24,1.39-.56,2.36-2,.36.42-1.46,2-2,2.93-.54-.17-.63-.14-.37-1m373.17,29.38c-.49-1.3-2-1.87-2-2.91-1-.76-1.7-.63-2.88-2.7.17-.08.35-.16,0-.6,1.42,1.15,5.8,4.83,4.81,6.21M25.12,286.5c0,1,.85.56.38,2.33-.4.53-1-.34-.38-2.33M314.24,103.16c1.25.34,2.86,1.11,2,1.24-1.35-.23-1.45-.56-3-.75-.3-.49.46-.42,1-.49M457.61,191c.3.54.72,1.2.41,1.34a4.69,4.69,0,0,1-1.39-1.74c.09-.46.78.56,1,.4m-387,.63A16.08,16.08,0,0,0,72.17,190c-.56.94-.71,1.79.35.82a9.23,9.23,0,0,1-2.38,4.33c-1.19-.25.82-2.78.46-3.6m327.52-55.26c.35.74-2.84-1.06-2.32-1.32a11.72,11.72,0,0,1,2.32,1.32M372.81,122c2,1.15,4.4,2.41,3.39,3a27.78,27.78,0,0,1-5.92-2.91c.65-.21,2.2.41,2.53-.11m-32.66-13.37a16.79,16.79,0,0,1,4.48,1.89c-.82.27.12.86-.82,1a4.56,4.56,0,0,1-1.94-1.21c-1.14-.21-1.19.16-2.57-.55,0-.65-.25-1,.85-1.11m-37.76-9.15c1.11.43,1.4,1,1.07,1.63-1.89-.33-3,.21-4.38-.25-1.4-1.11,2.09-1,3.31-1.38M315,101.57c1.57.43,2.82.87,2.41,1.46-1.67.08-5.39-.92-6.24-.34-2-.42,0-.65-2.45-1.12.82-.22,3.2-.77,4.43.17.89.08,1.06-.2,1.85-.17m40.13,12.22c-.72-.07-2.92-.89-2.39-1.21.69,0,2.94.88,2.39,1.21M253.49,96.86l0,.8c-2.62.24-3.34-.17-3.6-.74a12.3,12.3,0,0,1,3.56-.06M80.22,178.34c1.24-1.49,1.32-.58,2.1-1.13-1.17,1.33-1.8,1.61-2.1,1.13m159.09-81c1.22.05,2.12.21,2.25.71-.34.14-1.19.2-1.28.4-1.1,0-1.72-.74-1-1.11m-8,1.09c-.05.5-1.89.75-1.14,1.37-2.52.67-3.64.42-4.5,0,.11-.8,3.42-1.25,5.64-1.36M435.2,163.56c-.4.56,3.52,4.4,1.18,3.87-3.34-3.18-3-4.44-5-6.88.77.13,2.56,2,3.85,3M258.72,95.75c2.72.53-1.89,1.77-3.46.91-.65-.77,2.31-.62,3.46-.91m24.88.48a27.33,27.33,0,0,0,3.06.65c-1.53.27-1.72-.25-4,0,0-.16-.11-.25-.41-.3-.14-.32,1.24,0,1.33-.3m-1.81.53c-1.64,0-2.59-.27-2.6-.69.94-.19,3,.16,2.6.69m-41.23-.17c.35.47-2.72.53-3.13.46-.23-.31,2.71-.67,3.13-.46m-91.94,27.25c.58.36-1.67,1.29-.7,1.57,1.62-1,1.77-1.62,3.17-2.55.46.74-2.21,3-4.48,4.76-4.22,1.74-3-1.41,2-3.78M304.42,98c-1.39-.15-1.34-.47-2.22-.34-.59.71,4,1.27,2,1.77-1.77-.19-1-.71-2.52-.92a3.6,3.6,0,0,1-2.84.79c-2.31-.75-5.15-1.36-5.94-2.34.61-.63,3.25,0,5.38.13,1.9.15,5.8.08,6.15.91m40.23,9.55c.1.64-3,.23-5.39-.65-3.26-2.5,2.63-.46,5.39.65m8.62,2.52c2.13,1.19-.54.76.23,1.78l-3.31-1.23c1.43-.07.66-.51,0-1.26a15.56,15.56,0,0,0,3.06.71M227.88,96.55c.68.6,1.27,1.73-2.37,2.1.63-1.09-2.28-.49-2.84-1a51.08,51.08,0,0,1,5.21-1.1m181.84,43.28c2.58,1.71,1.82,2.23,2.11,3.15-1.83-1.26-1.88-1.92-4.19-3.31.26-.46,1.58.38,2.08.16m-2.37-1.33c0,.81-2.18-.95-2.71-.73-1.3-1-2.23-1.86-2.19-2.41,1.42.75,4.13,1.92,4.9,3.14m-25.82-15.23c0-.55-.11-.86,1.62,0,.51,1-2.78-.27-3.28.36-2.83-1.38-2.83-1.45-5.06-2.72-.89-.4-1-.12-1.1.21-2.76-1.51-7.55-4.29-7.58-2.69-2.09-1-2.7-.76-3.5-.66.94,1.31,5.66,3.17,7,4.62a26.79,26.79,0,0,1-6.61-2.3c2.56-1.06-5.67-3.12-6.9-3.9.43-.57,2.62.28,4,.51-.59-.58-.77-1.15.07-1.26,2.1.68,1.83,1.15,2.2,1.65,3.85,1.39,1.45-1-1-2.16-1.6-.7-1.47,0-3.07-.7,2-.88,8.41,3.11,9.84,1.93a8.77,8.77,0,0,0,2,1.05c1.78.54-.27-.81.79-.66a6.59,6.59,0,0,0,1.56.89c-1.38.28-.23,1.77,2,3,1.79.08,4.94,2.47,7,2.83M394,561.1a8,8,0,0,0-1.58.78c-.41-.23.59-.84,1.68-1.46.35.12-.09.46-.1.68M263.59,93c-.23.1-.42.22-.38.39-.86,0-2,0-1.81-.37.86-.26.78.06,2.19,0m162,57.8a50.84,50.84,0,0,1,5.71,5.76c-1-.15-2.91-1.73-3.31-1-1-1-1.16-.69-2.14-1.65,1.43.62,1.62-.57-.86-2.43ZM214,97.91c-.08.4-1.15,1-2.12,1,.89.26-.13.71.27,1.28a25.9,25.9,0,0,1-3.91.74c-.29-.21.55-.4,1.24-.55.43-.54-1.43.22-1-.32-1.39.26-1,.71-2.14.63,1.79-1.21,3.38-2,7.65-2.77m46.46-5.11c-2.23.52.3.82-1.34,1.35a3.47,3.47,0,0,1-2.24-.34c-2.36.9-9.13,1-9.89,0,4.1-.47,10-.57,13.47-1m112,22.69c1.56.58,1.16.86,1.82,1.31-.68,0-2.67-1.18-1.82-1.31m22,11.44c.9.49,1.44.89,1.42,1.15-1.33-.48-1.85-.13-3.55-1,.23-.54,1.61.14,2.13-.11M301,93.74c.25.44-.84.28-.55.72a23.06,23.06,0,0,0-2.7-.49c.36-.42,1.64-.4,3.25-.23m10.18,2c.28.46-1.53-.12-1,.49,0,.29,1.85.4,2.61.63a2.52,2.52,0,0,1,2.25.18c-1.58.05-.94.49-1.95.68A24,24,0,0,1,304.9,95c-.14-.35.82-.16.58-.58a15.29,15.29,0,0,1,5.69,1.26m-233,77.07,1.84-2c.24.35-.79,1.42-1.45,2.32ZM301.51,93.15a8.86,8.86,0,0,1,1.78.4c.16.3-.36.3-.54.45-1.37-.15-1.37-.49-1.24-.85M67.41,182.69c1.21-1.52,2.35-2.85,2.72-2.44-.69,1.29-3.21,3.94-2.72,2.44M244,89.39c.74-.09.8.07,1.4,0-.24.61.06,1.29-2.65,1.41-.87-.41,1.05-.86,1.25-1.43m54.7,1.36c-1.5-.62-2.41-.13-4.1-.39-1.3-.19-2-.5-2.18-.9a16.75,16.75,0,0,1,6.28,1.29M73.58,171.69l1.84-2c.62-.29.17.6,1,.28-.54,1.35-1.72,2.22-3.1,4-.44.24-.65,0-1.1.25a17.37,17.37,0,0,1-3.59,4.15c.41-1.07,1.94-2.4,2.58-3.81.24-.11.48-.22.62-.1-.1-.79,2.38-2.28,1.75-2.75m214.8-83.82c-2.19-.25-3.46,0-4.59-.51,1.5-.24,4.48-.55,4.59.51M259.45,86.6c-.23.12-.47.23-.47.41-2.89.2-3.62-.25-5.52-.35.63-1.08,3.75-.07,6-.06m-27.17,1.62c-.08.72-2.46,1.08-3.48,1.66a17.86,17.86,0,0,1-5.14-.17c2-.72,6.81-1.94,8.62-1.49m115.2,9.69,1.73.59c-.41.3.67.66-.21.62-1.64-.49-1.64-.84-1.52-1.21M194.24,93.84,184,96.8c.81-1,10.21-4.79,10.25-3m58.14-10.16c-2.75.16-5.08.22-7,.16.92-1,6.5-.91,7-.16m4.63-1a13.9,13.9,0,0,0-3.28-.15c.71-.44,3.45-.43,3.28.15m263.3,330.19a6.81,6.81,0,0,1-1,2.63c-.48,0,.18-2.47.59-3.2,0,.39.16.55.4.57m2.35-7.18c-.37,1.57-.8,1.25-1.24,1.19l.66-2.8a2.64,2.64,0,0,1,.58,1.61m-362.25-305c2-.85,1.86-.05,3-.24,3.61-1.83,9.26-3.56,11.81-4.7-.31.59-3.23,1.44-2.25,2-1.72.43-3.62,1.09-4.28.77-1.69.76-2.87,1.47-5.13,2.34a10.76,10.76,0,0,0-3.71.84c-.54-.22.53-.66.58-1m70.44-19.75c1.5-.07,3.87.24,5.72-.41,1.54-.09.44,1.06-.31,1.36-3.88.54-6.25,0-5.41-.95m79,1.23c.11.61-1.3.5-3.42.1-.13-.71,1.87-.59,3.42-.1m21.3,520.72c.83-.91,3.79-1.22,5.08-1.22-.75.83-3.84,1.05-5.08,1.22m12.65-2.47c-.42-.64,3.53-1.64,4.09-1.3-1.44.73-2,.59-4.09,1.3M16.86,242.89c.39-.43.74-.37,1.17-1.1a11,11,0,0,0,.08,3.63c-1.52,4-1,5.38-2.84,10.05a3.43,3.43,0,0,0-1.14,1.62c-1-.36.45-4.15-.41-4.7a65.39,65.39,0,0,1,3.14-9.5M186.28,88.32c-.24.18-.41.34-.36.52-1.18.4-2,.57-1.95.2.8-.52,1.15-.39,2.31-.72M532.22,353.43c-.58-.43-.36-3.42-.69-4.76.62-.49.72-2.9,1.34-3.32.57,2.51-.39,5.43-.65,8.08M205.54,82.68c-.16.43-1,.82-1.18,1.23-2.47.4-1.31-1.21,1.18-1.23m90.91,529.49a5.36,5.36,0,0,1,3.33-.82,16.8,16.8,0,0,1-3.33.82m238-289a5.6,5.6,0,0,1-.42-3.4c.48.84.21,1.47.42,3.4M351.25,601.63c-1.07.42-1.09.1-2.33.63-.35-.5-.46-1,2-1.63Zm171.68-338c-.4-.8-.84-2.11-1.27-3.13,0-2.44,2.12,2.83,1.27,3.13M503.6,216.33a25.16,25.16,0,0,1,1.9,3.87c-.42.5-1.24-1-2.16-2.68.12-.35-.22-1.22.26-1.19M536,339.1c-.07,1.94-.36,3.34-.87,3.82,0-2.37,0-2,.08-3.8ZM501.61,212.42l-.46.26c-.77-1.12-.44-1.16-1-2.13a3.81,3.81,0,0,1,1.51,1.87M11.88,246.08a14,14,0,0,0,2.23-4.83c.79.47,2.21-3.73,3.05-3.46-.33,1.51-1.91,6.75-2.78,7.7-1.07,3.7-2,8.59-4.24,12.23,0-.4-.13-.57-.34-.65.64-2.53,1.4-5.1.82-5.82a9,9,0,0,0,1.26-5.17m14-30.82c.57,0,.68.51.48,1.36-.7.73-1.59,2.36-2.07,2.2a9.82,9.82,0,0,1,1.59-3.56m492,29.62c.34,1.46,1.15,5.41,2.09,8.56-2.24-2.37-2.85-8.15-2.09-8.56M326.13,79.1c1.67.53,3.64,1.06,5.11,1.64,0,.76-.07,1.1,1,2-4.37-.62-11-1.63-17.29-2.65S302.81,77.94,300,76.39c-.15-1.53,4.27-1.21,9.84-.13,1,.4.71.95,2.22,1.32,5.09.19,12.42,3.07,14,1.52m-37.88-6.25c0,.4-2.56.26-3.4,0a13,13,0,0,1,3.4,0m90.87,521.43c-1.76.88-3.09,1.35-3.33.92,2.21-.7,1.93-.92,3.93-2.06.37.29-1.28.91-.6,1.14m114.52-401.5c-.71-.54-1.15-.87.22,1.05-.23.4-.95-.66-1.68-1.81.09-.32-.3-1,0-1.15a9.77,9.77,0,0,1,1.44,1.91M432.71,563c-1.1.68-2.47,1.7-4,2.84,0-.52-.91.2-.88-.33,2.48-1.24,6.1-5.57,7.95-5.78-.74,1-1.74,1.26-3.09,2.43-1.08,1,.84,0,0,.84m-182-493.24c1.49-.17,1.46.15,3,0-.07.57-3.14.56-3,0M503.07,208.27c-1-1.79-.22-1.75-1-3.36,1.25.72,2.15,4.45,1,3.36M149.6,94.05c-.52.42-.11.49.64.28-.1.59-1.35.55-2.1,1.26.15.21.46.28,1.12.07a8,8,0,0,1-2.38,1.85,2.69,2.69,0,0,0-2.25-.24c.17-.81,2.27-2,5-3.22m270,476.53c-1.17,1-1.52,1.72-2.89,2.76.64,0,1.7-1.17,2.41-1.63.74-.13,1.88-.75,1.84,0,1.3-1.14.75-1.63,1.24-2.48l2.78-2,.47.64a12.92,12.92,0,0,1-2.3,1.8c0,.76,1.2-.39,1.5-.41-1.59,3-8.51,5.61-12.08,7.53,1.65-1.41,1.88-3.53,7-6.26M69.79,148.28c.81-.47-.07.54.56.56l-1.4,1.4c-.13-.13-.2-.33-.64.09a8.85,8.85,0,0,1,1.48-2.05m386.74-3.13c.4.71,1.72,1.94,1.34,2.21-1-.86-1.36-.76-2.44-1.8a1.58,1.58,0,0,0-.5-.85c0-.66,1.19.49,1.6.44M445,555.49c.45-.67,2-2,2.07-1.44-.41.64-2,2-2.07,1.44M10.5,230.6l1-2.25c.19.14.51-.43.69-.25,0,.35-.78,1.74-.59,1.92-.83,1.81-.43-.87-1,1.18-.83,1.53.53-1.28-.16-.6M480.54,521c.1,1-2.11,2.32-3,3.36a25.43,25.43,0,0,1,3-3.36m-42.41,42.46-.58-.73c1.84-1.42,3.42-2.51,3.69-1.78-.72,1-1.91,1.52-3.11,2.51m68.26-78.95c-.64.12,1-2.11,1.49-3.15.2.62-1.33,3.09-1.49,3.15m-158-406.59c-.54.42-3.83-.71-3.25-1.27a6.63,6.63,0,0,1,3.25,1.27m21,6.54c-.23.48-1.25.32-3.09-.37-1.16-1.09,1-.86,3.09.37M328.61,70.57c.2.46,3.3.87,2.78,1.34-2-.43-3-.86-2.78-1.34M13.15,218c1.07-1.82,1.78-1.84,3.12-4.6-.13,1.91-2.07,3.46-2.06,5.13-.6.88-1.19.09-1.06-.53M480.76,526.32l-1,1.18c-.28-.31-.69-.32-1.35.16.72-1.17,2.64-2.53,2.35-1.34m-21.24,22.84a8.89,8.89,0,0,1-3.75,2.6c.38-1.45,3.62-3.63,3.75-2.6m29.21-32.56c-.53.7-.78.73-1.34,1.52-.6,0,.09-1-.52-1.07,1.17-1.52,2.13-1.35,1.86-.45m-6.48,8.33c-.67.41,0-1.15.54-2.12l.62.51c-.59.7-.54.93-1.16,1.61m-2.94,3.5c-1.27,1.35-1.43,1.9-2.52,3.11-4.17,3.06.34-1.44,2.52-3.11m18.12-21.72c-.71-.07-1.4-.4-3.21,2.69-.33,0-.88.67-1.12.44a30,30,0,0,1,6.95-7.44c-.59,1.2-1.8,2.94-2.62,4.31M350,74.52c-.37.3-1.95-.11-3.57-.55-.3-.22-.42-.44-.31-.65a13.15,13.15,0,0,1,3.88,1.2M505.33,495c-1.26,1.56-2.4,2.78-3.18,2.78,1.56-2.07,1-2.25,1.46-3.27a18.14,18.14,0,0,1,2-2.31c.53-1-.59-.37-.17-1.24,1.26-1.7,2.44-3.13,3.25-3.38-2.35,3.37-2.51,5.49-4.84,7.72a3.11,3.11,0,0,0-.21,1.07c.45-.13,1.5-2.19,1.65-1.37M514,480.12c-.56.84-1,1-1.32,1,.75-1.45,1.6-2.19,1.32-1M477.62,156.81c.55.21,2.94,3,2.13,2.83a12.22,12.22,0,0,1-2.13-2.83M370.46,80.44c1.24.46,1.45.79,1.19,1.06a11.9,11.9,0,0,1-2.43-.84c.09-.32.93-.07,1.24-.22M499.73,507.11c.2-1.05,1.4-2.92,2.7-4.94.23-.15.47-.32.62-.22-.71,1.78-2.58,3.52-3.32,5.16m13.09-19.48c-.84,1.73-.9.67-1.47,1.47.16-1.15,1.91-2.6,1.47-1.47M333.43,65.6c-.25.26.89.52.37.77a24.55,24.55,0,0,1-2.53-.33c-1.09-.65-.07-1.11,2.16-.44M82.82,121.45c2-1.45-.33,1.23-1.32,1.57-.09-.26,1.39-1.28,1.32-1.57M136.88,86c.43-.15.86-.29,1-.2.79.37-4.83,3.34-4.15,1.93.93-.56,3-1.35,3.15-1.73M506.64,187.27c-.6.34-2.5-3-2.81-1.84-.27-1-1.36-2.71-1.77-3.8.17-.16.62.41.72.12,1.5,2.44,3,3.33,3.86,5.52M34.73,169.19c0,.25-.37.84-.29,1.07a25.11,25.11,0,0,1-1.76,1.89,6.16,6.16,0,0,1,2-3m1.9-3.09c.83-1.19.85-.65,1.5-1.46,0,.24-.4.84-.34,1.05-.71.87-.95.68-1.16.41M16.31,195.35c.54,0,1.55-1.59,2-1.22-1.38,2.12-3.14,5.82-3.49,4.53,1.06-1.68,1.62-2.82,1.51-3.31m.8-2.58c.93-1.44,1.27-.92,1.7-.75-.66,1.28-.86,1-1.48,2.16-.69.1.49-1.57-.22-1.41M317.47,58.93l3.11.59c-.06.3.78.54.34.87a26.88,26.88,0,0,1-4.06-.64c-.35-.53.81-.37.61-.82M292.4,55.29c.67.49-.18.84-2.16.75-1.05-.45-.62-1.24,2.16-.75m-186,44.1c-1.23,1.37-6.07,5.52-8.41,6.13,3.43-2.21,6.06-5.31,8.41-6.13M478.5,145.58a109.76,109.76,0,0,1,8.69,9.74c2.89,3.74,5.55,5.75,7.65,9.14-1.21.44.68,3.83-2.27,1.16,1.95,2.65,7.26,9.4,7.6,11.7C496.09,173.21,489,164,487.1,160.14a32.5,32.5,0,0,1-5.61-8.15c-2.11-1.7-5.82-5.07-6.21-6.93-2.39-2.47-4.52-4.69-6-6.48.87-.11.77-.45,1.12-1.12,2.88,1.85,8.23,5.67,8.08,8.12m-424-5.93.28.27c-.36.66-1.82,1.92-2,1.57.48-.86.88-.94,1.77-1.84m61.57-49.47c-.12-.46,2.13-1,1.75-1.17,1.29-.6.06.57-1.19,1.15,0-.18-.21-.15-.56,0M179,60.82c1.39-.53,1.37-.24,2.6-.64.19.3-3.31,1.47-2.6.64m25.43-7.51a42.15,42.15,0,0,1,6.81-.92c-.44.49-2.81.85-3.47,1.33-.9-.25-2.44-.19-3.34-.41m73.88-6.81c-.33.09-.57.19-.57.37-1.5,0-1.1-.3-2.12-.34.1-.34,2-.26,2.69,0M172,59.94l.21.62c-2.06.58-2.83,1.06-4.5,1.64.65-.7,1.38-1.42,4.29-2.26m33.4-9.54c.47.19,1.38.48.68.81-2.86.42-6.83,1.49-6.92.64,1.86-.51,3.75-1,6.24-1.45m60-6.18c.92.63-3.08.73-2.62.13a12.17,12.17,0,0,1,2.62-.13m-67.76,3.49c1.12-.17,1.76-.11,2.75-.19-.69.58-1.13.58-3.17,1-.2-.27,0-.52.42-.77m-24.09,6.44c1.95-.09-1.32,1.5-2.92,1.63,0-.49,1.36-1.05,2.92-1.63m126.6-12.39a27.57,27.57,0,0,1-4.88-.39c-1.59-1.47,6.4-.77,4.88.39M120.81,69.87c.94-.5,1.16-.41,2-.9.63.15-1.15.9-1.21,1.22-1.25.64-1.38.16-.83-.32M49.55,124.78c-.65.83,1.56-.18-1,2.1l.64.66c-1.88,2.76-6.46,6.26-6.39,5.21,3.17-3.9,6.74-8.31,8.17-11.2,0-.56-1.28.89-1.25.3a21.67,21.67,0,0,0,1.76-3c1.34-1.41,3.05-2.27,3.16-3.13,2.64-1.27,5.58-4.35,9.13-7.19,1.14-1.12.31-.52.07-.75,1.84-1.34,2.15-.59,2.71-.21-3.15,3.2-6.86,6.17-10.38,9.81-2.37,2.4-5.19,6.52-6.62,7.37m58-49.22a19.91,19.91,0,0,1,3-1.44c0,.45-2.14,1.53-2.63,2.13-1.45.7-.16-.56-.4-.69M203.6,38.49l2.77-.53c.23.49,2,.33,4,.08-2.49,1-3.46,2-7.31,3-2.49.31-3.37-.13-5.66.12l-.11-.51c2.07-.76,7-1.35,6.35-2.15m35.62-6.84c.25.66-3.88,1-4.42.52,0-.4,3.62-.63,4.42-.52m118,12.42,2.7.85c-.4,0-.64.1-.66.34l-2.19-.68ZM194.92,38c.3.43-.4.85-.81,1.27-1.64.24-2.93.31-3-.25a38.19,38.19,0,0,1,3.78-1m21-3.86c-2.73.39-11.07,2.81-11.66,1.51a43.09,43.09,0,0,1,11.66-1.51M370.63,48.4a16.64,16.64,0,0,1-4.72-1.93c.55-.67,5.39,1.29,4.72,1.93M200,31.93c.23.87-3.5,1.87-3,2.39-7,1.71-11.9,2.2-18.71,4.51-.79-.42.7-1,1.9-1.48,8.47-1.35,12.21-3.5,19.79-5.42m-3.77-1.23c.79-.11,2.91-.77,2.82-.46.72.3-4,1.23-2.82.46M340,32c-.22.51-2.85-.1-4.57-.67-.7-1,4.2-.09,4.57.67m-44.63-7.73c-.14.33-.89.44-2.35.32-1.15-.49.78-.76,2.35-.32M270.11,23.1c-1.76,0-3.76,0-3.41-.44,1-.21,4.57-.22,3.41.44m77.34,9.78,2.24.6c.17.33-.48.24-.72.36-1.47-.35-1.75-.66-1.52-1m-163.81-.55c1.3-.19,2.52-.32,4-.59.59.28-1.4.62-1.53.92a4.5,4.5,0,0,0-2.91.34c-.11-.22.61-.45.44-.67M181.34,35c-5.52,1.43-8.76,3-13.19,3.69,1.54-1.47,7.77-3.23,9.6-4-2.68-.22-5.92,2.31-8.81,2.6,2.09-2.45,14-5,12.4-2.34m158.88-4.07c-1.79-.29-6.15-1.07-4.93-1.7,4.1.86,5.32.7,4.93,1.7m70,24.7c-1.41.43,2.88,2.31,4.05,3.42-2.91-1.15-6.5-2.95-11.49-5.29.19-.62,1.95,0,2.18-.58,2.21,1.19,3,1.23,5.26,2.45M584.7,287.88c.41,2.49.65,4.7.21,5.18-.5-2.78-.69-4.79-.21-5.18m-33.2-96.69a8.35,8.35,0,0,1-1.71-2.35,2.92,2.92,0,0,0-.33-1.15,12,12,0,0,1,2,3.5m-5-7.85c-.23.59-.9-.31-1.22,0-1.57-3.06-2-4.82-1.55-5.77,1.44,1.92,1.82,3.74,2.77,5.77M232.56,21c1.46-.15,2.23,0,2.36.29a16.82,16.82,0,0,1-2.9.43c-.18-.3,0-.52.54-.72M398.84,48.56a29.79,29.79,0,0,1-5.28-2.33l.21-.48c2,.51,5.22,2.25,5.07,2.81M413.72,55c-.06.34-.21.61-.86.45-1.62-1.17-5.12-2.78-4.79-3.44a23.64,23.64,0,0,1,5.65,3M199.8,25.09c3-.35,6.33-1.5,8.58-1.35.78,1-7.95,2.41-9.07,2-.15-.21.64-.42.49-.64m132.65.8a13.89,13.89,0,0,1-3.35-.82c.18-.41,3.74.46,3.35.82m24.22,6.27c-3.47-.78-8-2.22-10.6-2.93,1.15-.24,11.78,2.06,10.6,2.93M436.38,67a26,26,0,0,0-3.23-.28c-2.64-1.59-3.57-2.61-5.75-4,1.41-.12,5.9,2.67,9,4.28m-52.3-26.77c3.52,1.77,7.14,2.87,8.88,4.36a20,20,0,0,1-5.74-1.25c0-.65-1.86-1.63-4-2.6,0-.34.15-.63.86-.51M253.84,16c2.16.23,4.1.56,4.68,1.2a20.4,20.4,0,0,1-4.64-.14c1.46-.46.79-.64,0-1.06m35.73.6,0,.53c-2-.19-4.49-.26-4.67-.72,1.89.15,2.52-.08,4.71.19M241,16.8c0,.25-1.62.28-1.14.62-2,.09-4.72.49-5.86.35,1-.63,5.23-1.23,7-1M539.67,163.59c.94,1.4.65,1.59.42,1.86-1.42-1.89-.69-1.62-.42-1.86m-1.29-1.92c-.39.32-1.37-.93-2.56-2.6l.44-.3c1,1.58,1.18,1.31,2.12,2.9m-312-144.15c2-.18,2.79.1,3,.59a12.71,12.71,0,0,1-4.13.34c-.31-.38.8-.61,1.12-.93M249.12,16l-4.08.22c0-.2.08-.38-.64-.36.74-.59,5.61-.58,4.72.14m-66.2,11c3.31-.68,3.58-1.28,5.53-1.91a18.8,18.8,0,0,1,7.07-.65c-7.45,2.41-15.23,3.52-22.83,5.08-1.84.61-3.28,1.67-5.55,1.94,3.05-1.73,4.34-3.38,11.34-5.22,1.64.15,4.44-.26,4.44.76m185.64,4.26c-.57.42-5.69-1.06-5.58-1.8,1.21.3,4.71,1.16,5.58,1.8M218.68,17.71c-.82,1.18,7.06.69,5,2-3.29.41-3.5.35-6.36.86,2.67-1.15-3.42-.86-5.48-1-2.58.37-2.5.87-4.5,1.3-2.27.39-3.67.42-5.3.57,2.44-2.22,11.51-3,16.68-3.71M428.4,57.44c1.16,1.59,8.25,5.16,8.43,6.53-3.19-2.14-2.14-.14-2.84.13-.93-.42-1.6-.59-2.69-1.15-4.34-3.05-7.45-6.12-6.32-6.68.33-.37,2.44.93,3.42,1.17m5.73.73c.39.77,0,1.62-1.54,1.39l-1.52-.88c-1.54-1-.93-1.38-3.85-2.82,1.45,0,4.69,1.58,6.91,2.31m-196.42-45c.13.46-2.89.71-3.5.44-.1-.48,2.9-.72,3.5-.44M486.84,96.44c2,1.58,1.17,2.49-.62.68ZM350.44,24.1c-3.89-1.11-4.33-1.67-4.32-2.36,3.26.05,7.12,2.51,4.32,2.36m74.29,29a28,28,0,0,1-5.25-2.68c-.23-1.37,6.83,2,5.25,2.68M251.3,11.44c3.15-.19,4.47.17,4.18.91-.89-.24-3-.56-2.38.21a15.92,15.92,0,0,1-2.38,0c1.22-.47.86-.46.58-1.08M389.39,36.31c-2.84-1-5.38-2.21-7.87-2.65,0-1.39,10.2,1.59,7.87,2.65m-183-20.54c.31.57-2.67,1-3.35,1.54.12.42,1.08.48.77,1.08-5.59,2.08-15.28,3.74-20.21,4.25-.79-.16-2.5-.36-1.48-1,2.19-.63,1.5.21,3-.07,9.75-2.13,13.32-5,21.25-5.82M548.2,165.84c-.86-.62-3.82-5.18-3-5.2a17.19,17.19,0,0,1,3,5.2m15,25.18c.85,1.69-.57.76-1.05.54-1.25-2.51-2.17-4.57-1.41-4.68.85,1,1.58,3.54,2.46,4.14m12.64,27.14c.49,1.27.17,1.34-.15,1.41a18.27,18.27,0,0,1-1-2.86c.2-.64.86,1.36,1.18,1.45m-57.43-93.47c4.88,4.49,2,4.77,0,0M250.57,9a16.67,16.67,0,0,1,4.2.51c-1.58-.13-3.67-.11-4.2-.51m-33.16-.28c2.27-.09,6.13-.66,6.63-.07a53.33,53.33,0,0,1-6.52.86c-.12-.48-.73-.28-.11-.79m57.2-3.07c-2.52,1.09-12.81,1.17-15.1-.09,5.21-.3,11.21-.57,15.1.09M249.81,5a27.81,27.81,0,0,1,4.25.37c-.56.52-2.43.19-4.22.29ZM228,5.62c3.15-.35.07.67,2.45.68a46.26,46.26,0,0,1,12.77-.13c-5.94,1.92-16.32.77-24.15,1.46a14.24,14.24,0,0,1,2.92-1c2.72-.39,5.8,0,6-1M345,11c.32.32-.91.59.44.92-1.85.19-3.19-1.35-4.12-1.11-.76-.3,1.56-.4,3.68.19M309.5,4.13c2.55.35-.11.85-.65,1-4.22-.76-7.12-.81-11-1.5,0-.24.77-.2.7-.47,4.82.64,6.54.66,10.92,1M500.33,92.46a25.89,25.89,0,0,1,3,3c-.59,0-3.85-2.8-3-3M495,87.26c.25-.05,4,3.2,3.14,3a31.57,31.57,0,0,1-3.14-3m-37.16-35c2.05,1.65,4.89,3.66,5.17,4.6-1.69-1-7.74-4.25-7.08-5.07,2.83,2,.26-.3,1.91.47m-2-1.49a24.47,24.47,0,0,1-6.24-2.88c-.24.3.87,1.77-.7,1.12-12.88-7.43-23.57-15.3-38.17-22.23,1.56,1.31.1,1.35-2.82.18-2.48-2.17-7.91-3.62-13.08-5.74-2-.86-.85-1.21-3.79-2.21-.72,0-.39.52-2.63-.16-8.94-3.14-18.05-7.36-25.35-8.41a51.11,51.11,0,0,0-10.19-2.84c-.8.91,7.58,2.33,6.19,3.2L347.19,7.29c-3,.19-6.43.17-10.16.12,1.37.54,3.5.59,4.78,1.33a6.23,6.23,0,0,1-3.21.08C336,8.4,336.69,8,334.48,7.54c-3.43-.38-6.15-.41-7.56.14-2.85-.69-6.45-.88-7.78-1.34.14-.63,2.95-.24,5.55.13-.42-.6-3.56-1.07-5.32-1.57-6.86.31-17.82-3.92-22.64-2.07-2.9-.06-.47-.81-2.94-.92l-2.51-.21c-1.81.48-1.77,1.45-5.61,1.35-.07-.52,2.06-.4,1.88-.95-.84-.43-4.59-.42-5.42-.83.54-.31,3.42,0,3.09-.5C280.89.24,274.88.15,272.94,0c0,.45-2.27.78-3.72,1.26,1.07.23,1.33.62,1.21,1.07-3.73.3-11.08.34-15.23.37-2,.35.12.66-1.77,1-2.61,0-3.16-.45-5.56-.43-2,.13-3.44.39-6,.49-5.6-.76-13.11.29-20,1.41-1.34.53-3.06,1.27-1.62,1.67-5,1.2-7.21,2.62-12.85,3.95-6.09.5-12.2-.22-19.86,2.51,1.45,1.1-1.22,2.24-2.28,3.4,3.23.15,8.15-.82,13.1-1.95-1.07,1.35-6.71,2.43-8.9,4.08A31,31,0,0,1,183,20.34c-3.11,1.31-9.44,2.62-10.56,2.14-2.14,1.42-10,3.41-9.77,4.75,3.76-.34,7.45-2.26,12-3.58-.33.56,1,.26.85.73-2.81,1.89-10.21,4.18-13.52,6.29,3,0,3.2.62,2,2.41l5.25-.94c-.87.28-.49.47-.43.67,3.64-.93,7.68-2,9.19-1.69,3.22-.7,3.49-1.26,5.52-1.89,1.58,0,4.54-.65,4.76.05-.88,1.28-9.48,2.24-11.52,3.82-1.05,0-2.37.13-3.56.2-6.22,1.83-8.14,4-14,5.57.16.45,3-.71,2.5.13-3.85,1.51-4,.68-4.16.3a26.79,26.79,0,0,0-9.88,4.93,25.85,25.85,0,0,1-4.18.37c-2.17.84-2.85,1.41-5.27,2.32.48.46-.91,1.07-2.27,2.13,2.94-.31-2.75,3-3.68,4.24,2.16-.53,4-1.83,3.93-2.33a101,101,0,0,0,9.76-4.79c.37.13,1.67-.4,1.36.18-1.17,1-3.35,1.72-3.82,2.82A210.22,210.22,0,0,0,165,41.91c.66.63,5.11-.94,5.82-.32l-2.1.93c-3.67,1.16-4.74.75-9.26,2.53-.71,1.45-2.16,2.74-.44,3.8-7,2.08-12.92,5.94-20,8.78-1.58.64-3.15.84-4.81,1.57-3.06,1.31-6.22,3.44-9.44,4.94-4.23.82-10.65,3.64-17.3,7.39a173,173,0,0,0-19,12.56c0,.51.94,0,1.34.06,3.56-2.78,9.29-6.18,10.77-6C95.65,81,91,84,88.45,87a22.29,22.29,0,0,1-2.51,1.25c.73-1-1.33,0-.6-.86-3.88,2.47-4.65,3.73-7,5.67a5.69,5.69,0,0,1-2.16.78c-.58-.36.93-1.61.58-2.08-5,3-8.06,6.6-12,10.25-.73,2,3.86-.83.16,2.78-1.74,1.25-1.93.89-3.31,2.12-.75-.12-.27-1.07-.59-1.59.84-.83,3.13-2.36,2.37-2.35-3.95,1.84-8.11,6.14-13.08,11.36.74,0-1,1.43-.24,1.48-1,.48-3.1,2.48-2.64,2.89a36.15,36.15,0,0,1,6.48-5.36c.27.29-.6,1.22-1.2,2A60.27,60.27,0,0,0,41.25,129c.73.17.91.47.32,1.77-.72.78-1,.8-1.63,1.51-.11,1.3-4.74,7.25-.95,3.72-1.11,1.39-2.1,2.48-3.36,4.31-1.36,1.21-.07-.84-1.57.77-3.94,5.08-9.83,10.84-12.26,15.45a8.3,8.3,0,0,0,3.84-.44A13.66,13.66,0,0,1,22,161.49c.67.68-2,2.22-2.73,4.1.13.73,1.31-1.1,1.42-.36-.7.71-2.39,2.4-2.21,3.05.91-1.14,1.56-1.61,2.53-2.81.44-1.79,2.45-3.95,4.87-7.08,3.89-2.34,4.39-.83.9,4-1.82,2.55-3.5,5-4.41,5.45-.83,1.48-1.94,3.21-2.67,4.64.5,0,0,.9.06,1.29,2.84-2.22,5.75-6.84,8.56-10.77.22.4,1-.52,1.08.12-2.17,3.71-5.83,8.82-7,11.94.86-.24,2.42-2.22,2.83-1.26,2.46-2.62,2.64-3.91,5.17-7.23a7.1,7.1,0,0,0,.54-2.24c2.93-3.38,6.2-7.23,7.71-7.28-3.91,4.84-8.65,14.46-13.5,18a32,32,0,0,1-4.18,6c-2,4-1.76,6-2.48,8.91-1.57,1.7-1.67,3.65-3.44,6.38-.21-.33.44-1.52.1-1.72a42.58,42.58,0,0,0-2.9,4.91c-3.24,1.93-4,8.35-7.75,14.66.36.18-.21,1.43,0,1.74C6,214.52,8,210.51,9.38,209.75,5,217.11,7.52,219,4.51,226.2c-.56,1.36-2.09,3.41-2.16,5.16,1.55-2.23,2.84-2.71,4.7-6.25,0,1.66.62,2.09,1.93,1.49-.53,1.54-.56.18-1.08,1.72,0,3.08-2.58,9.59-1.12,10.93,1.77-3.11,2.53-1.29,3.57-.67,1.26-3.29,2.16-3.79,3.33-6-.44.32.76-4.19,1.56-4.67-1.19,2.43-.36,3.05-.72,5-1,3-2.21,5.36-3.88,9.47C12.2,245.7,9,252.57,6.3,260c-.8.81-1-.22-1.5-.49-2.45,5.34-4,13-3.43,16.25-1.55,4.37-.55,6-1.37,10.1.84-.45,1.71,0,2.48-1.92.33-1.31-.89.21-.56-1.08,2.49-3,1.76-10.48,4-13.89.55,1.29.82-.16,1.27.37-.28,1.69-.52.15-.79,1.25a70.7,70.7,0,0,1-2.67,11.69,8.76,8.76,0,0,0,.67,3.58,86.67,86.67,0,0,1,4.92-13.92c.59.77,1.21-1.2,1.8-1.44,1.46-4.21,1.43-6,2.87-10,1-1.5,1.86-1.46,2.78-2,.47,1.6-.49,5.34.6,6.08,1.6-2.07,2.75-1.5,4-.64,1.3-2.3,2.74-5.58,4.08-7.25.37-1.26-.83-.43-.23-2,.72-2,1.12-.25,1.84-2.23a42.74,42.74,0,0,1,1.4-8.33c.61-.52,1.37-2.2,1.93-2.12-.54,2.42-.95,6-2.66,8.75.26,1.35-1.15,4.78-2.21,6.93.52-.15.08,1,.17,1.48a44.36,44.36,0,0,0-1.93,5.11c-1.62,8.77-4.54,16.44-6.12,25.47-.24.35-.48.5-.74.28-2,5.63-3.66,11.63-5.54,15.14-.44-.55-1.17-.5-1.55-1.18-1.68,3.94-.74,8.35-.19,11.09-1.35,5.58-.27,9.86-.18,14.2.15,5.78-1.31,8.71-1.51,15.95-.95.32-1.25,3-1.37,6a5.6,5.6,0,0,0,1,2.29c0-2.48,1,.42,1.55-1.44a14.11,14.11,0,0,1,1.74,6.76c1,2.84,2.16-.39,2.81,2.56.48.2.23-1.62.71-1.43A15,15,0,0,0,15.94,363c1.19-5.67,3.2,3.23,4.62,5.8.82-1.16,1.1-.14,2.23-.22,1.3,6.93,2.67,3.42,3.51.48.38.07.46,1.57.75,2.11,0-.62.2-.85.44-.92a14.22,14.22,0,0,0,1,3.29c.27-4.44-1.51-9-1.05-12.28a14.31,14.31,0,0,1-.88-5.9c.53-.15.19,3,.59,3.39-.13-3.12.44-4.4.76-6.41-.42-.55-.66.61-.71-1.69.2.23.35.62.55.84-.38-3.14,1.5-2.69.7-4.62.55.51.78,2.05,1.49,2a29.41,29.41,0,0,0,.09-4.17c.33-.55.55,1.24.66,0-.52.29-.39-1.6-.38-2.92.34-1.31,1.12-1,1.47-1.22-.06,2,.41,2.47.51,4.14.24.39.43-1.24.51,0,.56,3.17-.25,4.12.12,7-.59-.38-.58.88-.88,1.3-.48-1.66-1.28-.5-1.4-2.48-.65,1.05-1,.84-1.6-.35,0,2.09-.26,2.39-.22,5.05.34,1.52.56.49.83.8-.08.74-.16,1.48-.6,1.32,0,5.61,2,9.35,2,13.33.17,0,.33.11.36.78.4.76.78-.55,1.44-.17-.42-2.89.43-1.48.83-2.15.28-1.3-.3-3.53-.28-4.16.63,2.38,1.37.71,2.08,2.31.47-2.87,2.43-3.89,2.16-7.56,0,.49-.33.51-.39,0a17,17,0,0,1,.18-3.71c-.55-1.61-.37-4.18-.36-6.06-1.21-.72-.38-3.87-.47-5.71-.73-.57-.58,1.28-.66,1.64-.22-1.42-.53-.21-1.05-.39-.36-3.6-1-7.79.07-11.05l.53,0c.21,1.22-.14,2.52,0,3.28.66.23.56.19,1.07-.4a39.87,39.87,0,0,1,.91-9.7,160.64,160.64,0,0,1,4-32.6c-.52-6.81,5.37-17.28,3.92-21.78-.44-.1-.91.54-.74-.69.73-2,1.38-2,1.77-2,3.08-6.11,3.75-12.21,6.65-19.49,4.24-10.62,8.93-19.65,10.85-26.08,3.06-2.48,4.25-7.08,6.27-10.39,1.84-3,3.6-4,5.78-7.12.86-5.1,9.61-15.21,12.73-21,.23.51,1-.14,1.15.5,4.16-5.62,7.1-10.22,12.87-15.74.32-2.09,5.91-6.62,10.22-10.23a18.73,18.73,0,0,1,4.37-4.71c1.21-.92,1.49-.55,2.92-1.75,1.9-2.79,5.78-4.57,8.32-6.7,1.87-1.55,1.91-2.9,5.09-4.68,1-1,.58-1.57,2.32-2.76.89-.27.52,1,1.41.69,3.58-1.72,4.87-3.9,7.61-5.64,3.18-2,7.85-3.21,10.14-5.63-2.77,1-4.66,1.12-8.18,3-.4-.34-.72-.22-1.63-.3a27.87,27.87,0,0,1,2.26-2.16c-1.47-1.25,3.29-4.82,7.92-7.54,1.35-2.2,7.67-6,12.65-7.36a39,39,0,0,1,10.64-4.32c0,.5-.91.86-.07,1,2.83-.56,4.49-2,7-2.87,3.69.27,15.65-4.56,19.09-3.63a18.81,18.81,0,0,0,5-1.73,14.51,14.51,0,0,0,3.12-.14c11.76-2.83,21.47-2.57,32.24-4.57-.07.48,1.34.39,1.37.83,8.47-1.43,14.59,1,21-.41.69.07,2.32.52,3,.18a5.51,5.51,0,0,1-2.2-1.24c1.39-.18,3-.06,3.52.34-.71.66-1.25,1.2.4,1.73a66.73,66.73,0,0,1,10,.11c.37-.34-.62-.39-.37-.69,3.18.33,3.63-.38,5.3-.64.91.49,3.32,0,4.37.58-2,.57-4.15.75-6.72,1.35,3.81,1.63,11.75.62,14.5-.1a27.32,27.32,0,0,1,4.81.46c1.42,1,.14,1.91-2.52,1.75-1.7-.42-3.57-.75-3.52,0,1.83.6,3.06,0,4.79.17a9.89,9.89,0,0,0,3,1,38.26,38.26,0,0,0,5.2.41c3.65.7,3.2,1.45,7,2.54a11.68,11.68,0,0,0,3.16-.07c2.27,1.06,5.92,1.44,5.78.22-2.7-.94-6.11-2-7.67-1.63a16.7,16.7,0,0,1-2.75-1.68,27.28,27.28,0,0,1,8.92,2.1c.57-1-3-1.81-2.94-2.78.83.15.49-.41,1.82,0a20,20,0,0,0,3.23,1.66c.21-.53,2-.65,1.64-1.08-1.11-.65-1.81-.25-3.48-.76-.3-.37-1.17-.71-1.07-1.1a20.49,20.49,0,0,1,8.5,2.55c-1.14.16-4.92-.64-3.81.44,2.25.82,1.95,0,3.92.69a16.68,16.68,0,0,0,5.47,3.32c-.46,1.35-7.06-1.38-9.28-1.09,1.52.51,2.24,1,1.83,1.61,4,1,5.74,2.14,9.85,3.32.83-.09.95-.68,2.43-.31,1.95.85-.42.76,1.27,1.57.89-.13,1.27.37,2.94.91,4,2.92,12.11,3.72,16,6.64-1.4.8-8.33-3-9.54-1.89-.65-.19-2-1-2.07-.68,2.41,1.85,4.44,1.24,7.68,2.87.34.62.76,1.26,1.05,1.9,3.18,1.86,7,2.46,8.79,3.48s1.73,2.58,4.61,3.2c.55-.42-1.69-1.33-1.06-1.73,2.72.79,2,1.62,4.42,2.75,1.52.33-1.26-1.34,0-1,2.88,1.47,2.5,1.69,1.47,1.84,2.82.81,2.18,1.73,5,3.28.34-.13,1.11.2,1.15-.25-1-.6-2.22-1.19-2.12-1.52-.39-.54.39-.23,0-.92,4.76,2.41,2.68,3.29,5,5.19,2.31,1.17,3.08.57,5.73,2.15,0-.6.76-.42,1-.76a11,11,0,0,0,2.74,2.09c-.79.87,3,3.11,2.48,4.07a34.62,34.62,0,0,1,4.39,3.39c1.51.67-.61-1.33.54-.75,3.48,1.75,6.46,6.39,8.94,6.74,1.86,2.49,5.84,5,7.4,5.22,2.11,2,4.37,3.53,7.28,6.11.43.64-.4.65,0,1.26A43.59,43.59,0,0,0,437,175.5c3.07,4.25,5.61,4.93,8.83,8.26.37-.95,3.66,2.43,4.17,3.78l-.51.43c-.87-1-.46-1.19-1.77-2.46-.8.91,1.17,3.87,2.27,6.55,3.07,3.2,3.28,5.19,5.39,8.3,3.68,3.68,5.4,8.49,8.5,11.23,3.83,6.22,7.63,10.53,11.86,18.29,1,1.23,1.85,1.55,3,3.69-.09.14.21.7.5,1.23-.17.67-.87.78-.73,1.79a7.49,7.49,0,0,1,.66,1.59c4,4.12,5.07,10.72,8.35,17.72.07,2.31,1.24,4.16,2.48,7.29-.07,3.79,4.14,10.31,3.75,13.1-.43-1-.89-2.77-1.36-2.23.72,2.42,1.8,4.81,1.79,6.58-.35-.13-.87-1.76-.88-.67.45,1.86.92,3,1.35,4.46l1-.27c-.38-1.66-1.27-4-.72-4.2,1.25,4,2.79,12.57,1.77,14.86,1.67,7.41,1,12,2.41,17.63-.88,2,.69,11.7,1,14.35.13-3.28.56-3.76.54-7.26-1-2.65-.53-6-.67-8.49a69.44,69.44,0,0,1-1.62-8.34c1.37-3.14-.19-10.88-.57-16-1.34-5.16-1.64-9.76-3.67-14.08-.51-4.36-2.75-8.66-3.17-12.5-.62.43-1.11-1.51-1.54-2.18.33-.17.42-1.09.64.19.93-1.61-1.6-7.42-2.24-10.73a26.91,26.91,0,0,1-1.78-3c-2.5-8.09-8.34-18.84-11.92-26.55-.68-1.09-1.07-1.08-1.71-2-1-2.13-.29-2.74-1-4.56s-2.79-4.58-3.92-6.32c-.68-1.07-1-2-1.44-2.74-2.22-3.32-5.31-6.66-5.56-9.05-1.37-1.91-1.73-1.14-3-2.7-2-3.56-5-5.87-8.34-9.67.29-1.51,2.2-1.22-1.1-4.94-.09,1.24-2.67-2.51-2.9-1.54-.24.76,2.48,3.28,2.89,4.47-2-2.18-3.58-1.19-3.21.6,1.76,2,3.76,4.24,3.5,5.1-2.19-1.61-4.53-5.34-7-7.84-.55-.21-.75.36-1.77-.7-1.12-1.62-1-1.72-1.06-2.59.6.49,1,1.57,1.52,1.55-.57-1.37,3,2.26,2.18.34-1.38-1.7-3.59-3.19-4-2.22a8,8,0,0,0-1.45-1.62c-2.76-1.48-1.47,1-1.24,2.48a23.22,23.22,0,0,1-3-2.52c-.4-1.2,1.36.49,1.78.06-2.23-1.92-2.19-3.73-4.49-6.07a15.64,15.64,0,0,1-3.92-4,148.22,148.22,0,0,1-12.84-9c-.26.73-1.57,0-2.55-.27.51-.28-1.4-2-1.62-2.88-1.56-.68-2.07-1.4-3.43-2.63-1.19-.49-5.77-3.1-6.36-4.53,3.85.68,9.09,5.81,12.46,6.51a7.23,7.23,0,0,0,1.05,2.28,11.61,11.61,0,0,1,3,2.49c2.83.83,6.66,4.71,9.46,5.73-1.46-2.59-6.3-6.2-7.91-8.39-1.79-1-3.8-2.26-5.45-3a18.46,18.46,0,0,0-4.95-3.61c-.46-.68-1.64-1.61-.85-1.88-2.45-1.65-3.13-1.08-5.63-2.71,1.33-1.6,7.9,4.51,10.55,4.92a58.41,58.41,0,0,1,7.55,6.91c-.27-1,4.63,2.57,3.86,3,3.19,1.59,6.85,5.42,5.89,6.6-.47-.06-1.76-1.38-2-1a4.6,4.6,0,0,0,1.53,1.51c.85.66.42-.77,1.52.3a26.89,26.89,0,0,0,4.62,5.34c-.11.66-.3.48-.12,1.34,1.1.67,1.59.22,3.6,2.59.48-.2,1.26.2,2.43,1.31a2,2,0,0,0,2.2-1.53c1.76,1.36,1.71,2.34,2.85,2.74-.73-1.33-1.89-2.92-1.81-3.76-1.39-1.25-1.46-1.78-2.77-3-.94-.16-3.1-2.44-4.86-3.93-.88-2.71,3.65.67,4.21-.57a16.19,16.19,0,0,0-3.64-4c.61.32,1.47.49.91-.41-1.5-1.42-2.28-1.63-3.62-2.74-.45.16.43,1.08-.52.6-6-5-13.17-12.58-19.91-15.47-.85-.83-.92-1.42-2.21-2.4-4.35-2-7-4.18-13.08-8,.2-1.23-2.32-3.18-3.92-4.84,3.56.6,10.64,5.29,14.2,8.19.9-.33-1.85-1.84-1.73-2.43.49.05,1.24.42,1.23-.13-2.07-2.62-6.88-5-10.47-7.55-1.42-1-2.27-2.11-3.6-3-4.95-3.41-11.69-6.17-14.55-9-4.11-1.94-5.65-3.33-6.55-4.7-11.54-4.7-16.16-8.09-25.54-11.62a14.68,14.68,0,0,0-6.42-3.12c-.29-.44-1.12-.87-1.13-1.3-2.61-1.21-6.82-1.6-9.51-2.73,2.38,0-2.09-1.93-.41-2.28a34.43,34.43,0,0,0,6.54,1.3c-.25-1,2.48-.19,1.87-1.4-.68-.38-2.32-.76-2.65-1.15,1.25-.11,2.71.61,4.65,1.17,2.24.16,1.71-.62,3.65-.44,6,1.74,6.32,3.29,11.54,5.17,1.15.25,1.25-.25,2.95.36,3.81,1.31,7.13,3.44,9.24,4.3,1.78.74,3.7.95,5.48,1.74s3.45,2.31,6.22,3.82c4.28,2.35,5.14,2.88,6.9,4.52,2.82,1.31,7,3.81,9.48,4.57,3.81,2.24,6.27,4.79,9.87,6a3.14,3.14,0,0,0,.05-1c-2.65-2.55-11.25-6.4-12.42-8.33.58-.89,3.12.64,6.06,2,2.44,1.1,3.91,1.12,5.16,1.76,1.48.76,3.54,2.53,5.35,3.4.42.53-.63.6.81,1.45,2.46,1.88,2.92,1.47,5.09,2.82,4.48,2.82,7.81,6.83,11.74,8.7,1.48,1.07.85,1.34,2.88,2.65,1.14.74,1.41.32,2.68,1.24,2.68,2.37,4.47,4.73,7.33,7.12,1.29,1.09,2.59,1.79,3.9,3,2.93,2.71,3.27,4.34,6,7,4.06.67,12.88,11.54,19.46,17.52,1.26,2.61,6.93,8.41,7.1,10.45a92.39,92.39,0,0,1,6.71,8.27c1.06,1.95.84,2.94,1.66,4.73a15.2,15.2,0,0,1,2.82,4.49,65.61,65.61,0,0,1,5.72,5.5c-.68.64.84,3.27,1.61,5.27.27-.27.57-.45,1.31.87a35.22,35.22,0,0,0,3.43,5.8c-.19,1.48,1.57,6.15,3.54,7.43,3.33,10.2,11.52,23.93,14.83,37.44a14.3,14.3,0,0,0,2.86,11.18c-.47.19-.22,1.56-.2,2.5,2.08,9.35,6.62,24.41,6.72,33.55-.51-.3-.45.61-.63,1.06,1.44,6,3.36,19.3.95,19.82.11,5.91,1.58,8.88,1.77,15-.25,1.08-.85,1-1.15,1.91.1,7.66-1.08,15.91.49,19.27a8.74,8.74,0,0,1-.93,2.34c-.7,5.13-1.25,9.4-2.13,14.84-1,6.31-3.18,11.49-4,15-.39,1.65-.26,2.75-.61,4.59a58.55,58.55,0,0,1-5.68,16.75,23,23,0,0,1-2,5.67c-.33,3.1-2.27,7.68-3.41,8.6-.83,3.42-2.48,6.8-3.85,10.36,0,6.86-8.21,18.9-11.27,27.24a70.66,70.66,0,0,1-11,14.91c-1,4-4.29,7.67-6.86,10.8-.76.94-1.22,1.9-1.6,2.3-1.05,1.14-2.88,1.89-4.8,4.42-3.62,4.66-1.79,5.36-6.7,11.62-2.15,2.81-10.28,11.42-10.75,10.7-.56-1,7.8-8.24,7.89-10.17-4.66,3.05-7.79,8.4-13.45,14.3-2.64.58-5.75,4.74-9.68,8.33-7,6.43-15.56,11.5-22.42,16.9-1.69.9-2.48.62-4.64,2.06-.92.74-.57,1.08-1.87,2-2.4,1.24-2.38.64-3.49.46-4.5,2.41-11,6.68-14,7-9,6.1-17.42,9.41-23.15,10.29a15.19,15.19,0,0,1-6.34,1.93c-10.2,4.38-21,5.85-32.29,8.3a8.29,8.29,0,0,1-3.28-.35c-4.74,1-7.25,1.61-10.59,2.24-8.05,1.39-9.33-.56-16.86,1.37-2.07-.87-5.95-.15-7.95-1.13-5.71.75-7-.47-9.94-1-2.22.09-2.71.63-4.6.79-5.27-.29-13.68.85-15.65-.91-9.47-.67-14.62-2.87-22-4.7-4.36-.21-4.41-1-8.12-1.59a27.08,27.08,0,0,0-2.65-1.75c-1.64-.21-3-.49-3.2-.93l.14-.78c-3.46-1.77-9.21-2-9.55-.54,1.26,1.61,7.5,2.56,6.74,4.33,1,.52,2.72.92,3.6,1.44.2.54-.61.54-.61,1,2.94.25,2.8.89,4,1.32.86.28,2.11.35,2.93.55,4.32,1.14,5.36,2.19,5.52,3.77a7.75,7.75,0,0,0,5.2-.8c3.08.63,4.2,1.69,8.88,1.84.17.25.11.57,1.24.59a17.81,17.81,0,0,1,6.4,1.68c6,0,10.9.19,15.15.5,2.12-.19,4.93-.72,6.06-.19l.08,1.32a20.74,20.74,0,0,0,7.42-.06c2,.65,7.05,0,9,.57,6.56-.88,10.37-1.6,16.5-2.46,1.95,1.47,10.88-1.08,13.58-.25,5.38-1.21,10.86-2.69,15.95-4.11.06.31.86.14.62.63,3.06-.44,5.2-2.14,7.54-2.89,2.59-.84,2.65-.12,5.37-.91,2.14-1.82,11.34-5.45,10.7-3.45,4.12-1.72,6.71-1.41,10.57-3.06,2-.88,3.48-2.14,5.51-3.12,2.69-1.31,5.9-1.89,10.19-4.93.57.65,3.45-1.19,4.58-1.19,9-6,11.25-5.61,16.19-7.83,3.28-4.11,11.76-9,16.12-11.59.71-.72.06-.86,1-1.67,3.58-2.71,6.72-3.58,10.71-8.14,4.37-2.25,12.32-9.58,17.47-13.46-.11-.44.93-1.59,1.48-2.47a47.49,47.49,0,0,0,7.52-8.28,82.86,82.86,0,0,0,9.33-10c.89-1.29-1.18.66-.24-.79,1.83-2.3,3.15-3.18,5.11-6.13,2.64-1.28,6.62-6.54,10.46-12.51s7.58-12.58,10.57-16.26c2.47-5.09,4.54-9,6.33-11.25,4.44-10.79,7.6-13.4,11.18-24,.87-1,1.82-4.93,2.66-6.22a8.57,8.57,0,0,1,.44-2.85c1.1-3.36,2.18-5.51,3.13-9.66,2-2.47,3.53-10.75,5.1-15.24a11.18,11.18,0,0,1,.32-3.34c1.15-2.6,1.93-7.93,3-9.88,1.85-14.81,4-23.2,4.46-36.94.05-1.42-.5,1.23-.53-.52,0-2.74.81-2.15,1.15-3.44.33-8.21,1.28-13.33-.64-21.7a69.42,69.42,0,0,0,.42-10.49c-1-4.45-.93-7.44-.17-8.53-.21-1.82-.57-2.07-.8-3.93a48.1,48.1,0,0,0,.66-5.17c-3.31-11.44-3.94-19.46-7.64-31.63.08-6.37-5-20.35-8-29.3a29.5,29.5,0,0,1-1.67-3.08c0-.87.71-.22.64-1.47-3.13-6.39-7.88-13.28-6.86-15.89-1-1.84-.5-2-1.86-4.22-.88-1.34-1.3-.91-2.18-2.25-2.73-5.46-8.26-14-5.6-13.35,4.86,8.5,8.38,9.68,11.71,17.54-.52-.18,0,.79-.33.78,2.27,4.49,3.47,4.67,5.64,9.24.16.71-.43.55-.28,1.23,1.52,3.15,1.84,5.57,3.6,8,.51-.32,1.12-.06,1.83.87a35.55,35.55,0,0,1,3.83,11.22c3.48,7.76,6.1,17.46,5.82,21.88-.24-.77-.51-1.71-.71-1.41-1.47,2.78,2.42,8.66,4.15,17.44.61,3.15.48,4.73,1.57,7.45a21.27,21.27,0,0,1,.11,3.11c3.55,9.84,2.24,16.8,3.64,26.65-.56.68.16,4.8-.19,6.16-.58,0-.71-2.51-1.37-1.92.21,4.14.9,5.41,1.2,8.48-.76,2.18-.23,8.85-1.22,10.68.09,5.34,1.13,6.61,1.15,11.54-.75,3-1.14,7.71-1.74,12,0,14.44-3.59,27.28-6.62,37.9-1.82,1.59-3.37,10.74-5.34,14.63-.1,6.2-4,19-7.62,24.48-.66,2.66-2.6,6.95-2.62,8.53-.8,1.55-1.63,3.45-2.42,4.89-.09.95.53,1-.13,2.68-1.29,3-2.3,3.82-3.62,6.54-.76,1.93-.32,2.38-1.18,4.38,1.74.15-1.92,6.56-3.28,10.08-.67,1.22-1.15,1.66-1.85,2.91.36.05.4.47-.27,1.6a4.41,4.41,0,0,1-1.89,1.78,18.18,18.18,0,0,0,1.21-4.43c2.1-4.08,5.08-7.65,5.78-11-.42.58-.87,1.32-1.13,1.1a218.11,218.11,0,0,1-13.2,22.15c-.37,1,.24,1.06-.59,2.47-2.3,1.93-4.39,6.34-7.08,9.64-.76.94-1.27,1.21-2,2.18-3.33,4.56-8.39,11.49-9.81,13.63a34.81,34.81,0,0,1-4.74,3.75c-3.94,5.73-8.59,9.1-12,13-2.72,1.79-5.86,5.24-9.46,7.93-.53.61.47.41-.24,1.15a33.92,33.92,0,0,0-3.64,3.27c-5.81,2.14-15.78,12.3-25.59,18.82-1.19.54-1.12-.51-2-.32-2.63,1.71-1.55,2-3.5,3.47-4.48,2.34-10.43,6.44-14.64,8.64.06-1,2.46-2,4.16-3.38-7.49,2.67-18.84,9.26-27.49,12.86-2.36-.37-7.49,2.59-13,4.79-2,.26-4.29.68-6.75,1.21a9.71,9.71,0,0,1-2.06,1.08c-3.11.24-9.66,2.8-13.42,3.25-5.58,2.33-8.62,2-13,2.67-2.67.4-4.12,1-4.77.43.08-.34.59-.66.25-1-3.16-.34-8.05,2-11.56,1.74-1.56.49-2.24,1-4,1.48-11.77,1.38-24.32,2.07-33.55,1l-5.07.28c-3.58-.71-8-1.22-12.87-1.72a22.39,22.39,0,0,1-10-1.31,61.72,61.72,0,0,1-13.58-1.5c-5.31-1.15-10.18-3.16-14.48-4.13-3.11-.69-6.3-1.14-8.78-2s-1.7-1.71-3.54-2.75a22.78,22.78,0,0,1-8.27-1.76c-.06-1.1-3.85-2.06-5.2-3.13-10.33-2.8-14-5.94-21.5-9.36.66-1.41-5.82-3.42-6.48-5-5.16-2-8.27-3.88-9.44-5.47-6.09-2.95-12.55-6.32-16.18-9.26-3.06-1.54-5.42-2.32-8.89-4.49-1.33,1.88,3.67,6.07,1.68,7.35.86,1,1.15,1.93,1.91,3-.65,1.28,1,3.1.55,4.43,3.51,2.77,7.94,5.59,11.14,8.1,8.57,4.08,7.84,6.6,16,10.21,1.55,1.83,5.15,4.1,11.14,5.75a9.74,9.74,0,0,0,1.84,1.75c3.53,1.45,4.33,1,6.4,1.4,8.64,3.68,19.83,5.47,25.1,8.77a6.19,6.19,0,0,1,2.36.2,40.79,40.79,0,0,0,8,3.42,18.69,18.69,0,0,1,9.15,2.23,25.88,25.88,0,0,0,6.61.21,36.38,36.38,0,0,1,5.06,1.78c.54-.09.2-.47,1.47-.28,2.34.47,5.13.81,6.55,1.45,1.48,1.56,6.89,2.1,12.8,2.18s12.29-.27,15.84.17c5.52-.32,11.09-1.05,14.82-1.28.45.63-.56,1-.28,1.63,6.77.5,14.17-.64,23.58-2.33,4.45.23,12.44-1.54,19.07-3.71.47.12,1.78-.27,2,0l.21.77c3.67-1.1,6.05-1.52,9.43-2.58,2.44.82,7.62-.62,13.11-2.64s11.27-4.62,15.23-5.65c1.41-.43,1.93-1,4-1.84a16.19,16.19,0,0,0,4.18-1.55c1.18-.54.12-.63,1.6-1.22,1.63-.59,1.15.17,3.26-1.2l.36.71c4.36-2,5.54-1.1,11.09-4.46a82.27,82.27,0,0,0,25.46-14.79c1.52-1,2-.7,3.64-1.84a80.13,80.13,0,0,1,15.55-10.23c1.18-1.26,1-1.89,2.93-3.54,5.06-2.09,14.87-12.38,19.4-14.76,8.76-8.78,14.76-15.27,21.93-23.32a28.7,28.7,0,0,1,2.35-3.3c.25.19.85-.48,1,0,4.44-4.64,9.07-10.42,13-14.74a48.53,48.53,0,0,1,6.64-9.73c1.53-3.28,4.05-7.7,5.49-11.11a63.33,63.33,0,0,0,5.32-7.74c.35.37,1-.53,1.39-.42,1.95-3.38,4.31-6.55,5.52-10.64.61-.61,1.33-1.88,2-2.51a374.51,374.51,0,0,0,15.26-40.51c3-7.22,6.37-13.89,7.29-25.29,1.4-4.57,3.19-4.67,4.43-10a63.76,63.76,0,0,1,.43-8.46c-.23-1-.79-1.1-.61-3.26.4-4.37,1.47-4.29,2.13-6.77a13.3,13.3,0,0,1-.1-2.7c.36-2.76,1.4-2.3,1.48-6.26,0-2.14-.82-1.19-1-2.73.09-2.65,0-5.75.51-6.4.25-.09.28.66.52.56,1.15-3.44,0-9.6-.7-12.78.5-2.86-.43-6.37-1-8.46a36.25,36.25,0,0,1,.15-6.91c.49.15.61,1.35,1,.39,0-4.4-.37-9.47-.37-13.39-1-1.85-1.11-6.35-1.08-8.49-.79-2.29-1.46-6.4-2.27-9.91.35-3.68-2.45-13.34-1.38-15-1.86-6.52-.14-5.9.3-7.38-2.14-6.61-5.2-13.25-6.45-20.12.34-.31,1,1,.88-.3-3.71-8.77-7.07-16.33-11.26-26.45a16.83,16.83,0,0,0,0-4.8c-1.82-3.73-2.35-4.69-4-7.82-.63-1.51-.22-1.82-1.16-3.7-3.24-5.86-4.65-9.77-7.52-15.27-.54-.5-1.63-2.65-2.17-3.1-4-7.18-4.92-11.09-9.06-17.79-.08-.54-.43-1.29-.44-1.77a98.29,98.29,0,0,1-6.95-10.63c-2.1-1.74-5.67-6.5-8.84-10-.71-1.3-.05-1.61-1.73-3.63-.32-.35-.34-.54-.61-.88a55.85,55.85,0,0,1-7.48-6.69c-3.69-4.08-4.31-6.6-6-8.88-2.37-3.08-5.73-5.82-7.66-8.12a43.26,43.26,0,0,1-8.82-8.58c.71.39,1,0,.52-.6-2.35-2-2.8-1.9-4.51-3.29-2.22-1.82-6.79-6.7-7.71-7.36-1.88-1.42-3-.89-5.31-3.2-3.06-4.63-12.69-9-20.13-14.25-.47-.35-1.36-1.34-2.14-2-3.22-2.63-10.09-6.64-9.21-7.6-6.42-3.61-10.15-6.27-14.47-9-3-1.24-9.68-3.6-9-4.88a24.37,24.37,0,0,1-3.52-1.86c-.52.2.76.75.23,1-2.57-1.08-3.5-.91-6.94-2.56-.86-.63-1.67-1.25-2.31-1.82-4.51-1.22-11.27-4.7-5.38-3.4,1.56.64,3,1.67,4.72,2-.17-.48-4.1-2.79,0-1.42,1.19.52,0,.7,1.93,1.35,2.7,1,4.13,1.1,6,2,.21-.49,1.4-.34,2.64-.42,3.7,2.06,6.29,4,11,6.4,2,1,1.86.18,3.88,1.18.89.57,1.77,1.15,2.95,1.81a15.92,15.92,0,0,0,2.8.71c-.12.21.39.56,1.46,1.09,3.87.64,10.36,3.71,16.17,6.48.39,1.05,5.62,4.82,7.19,4.8.35-.37-1.87-1.66-.89-1.82,6.15,3.28,12.7,9.07,18.38,13.08.09.57-1-.25-.91.31,5.79,6,15.66,12.56,22.49,18.12-2.35-3.74-11.25-10.55-8-11.26,5.29,3.2,14,11.57,13.7,13.54,2,1.94,2.2,2.84,4.76,5.16.7.37.8-.17,1.79.62,4.21,4.33,7.76,6.84,12.13,11.74,3.35,5.07,10.36,11.94,15.81,18.59-.49.86,4.29,5.69,4.54,6.85-.67,0-1.69-2.17-2.35-2.6-.65-.28-1.39-.72-1.66-.19a43.92,43.92,0,0,0,2.85,3.67c.62,1.25-.47,1.05.9,2.93,2.42,1.45,5.26,4.84,8.62,9.47,1,2.38,2.28,5,3.73,7.95a33.69,33.69,0,0,1,2.52,3.18c2.27,5.23,8.41,15,9.59,19.7,1.25,2.62,1.73,2.32,2.8,4.42a114.16,114.16,0,0,0,5.63,12.57,39.29,39.29,0,0,0,2.51,6.47c1.33,3.75.86,5.63,2.21,9.6.76,2.27,1.93,4.27,2.86,6.91.84,2.46,1.2,4.77,2.24,7.68,1.13,3.18,2.5,5.35,3.27,8.51.64,2.78-.31,2.39.25,5.29,2.35,4.22,2,8.84,2.88,13.29.9,1.92,1.74,1.35,2.65,4.66.24,1.88.43,4.95,1.37,6.67.56,0-.2-2.86.54-2.47.56.29,1.11,2,1.64,3.17-.55-.49-.26.87.08,2.33.3,1.06.68,0,1,2.15.4,2.47-.19,2.68-.06,4.63a12.08,12.08,0,0,1,.27,2.23c.59-.25,1.21,1.87,1.93,4.33-.63-1.51-.55.65-.74,1.28a20.76,20.76,0,0,1,.92,6.22,30.82,30.82,0,0,1,2.11,4.9c.1-1.32,0-3.08.49-3.49-.18-2.31-.64-1.68-.82-3.94.37-3.3,1-1.57,1.71-3.81.92,1.07,1.56,6.52,1.35,8.58.56,1.45,1.06,3.22,1.67,3.87.17-2.12-.74-2.92-.64-5.13.92,1.21,1.11-.77,1.68-1.46.2-1.05-.61-4.76,0-4.63.6-.61.86,3.28,1.46,2.67.45-1.1.17-4.17-.6-8.21-.35-3.06.41-3.3,0-7.15-.74-6.22-3.87-15.46-2.58-17,2.78,5.8,3.09,17.86,5.37,26.16a29.48,29.48,0,0,0,.4,5.31c.88,2.64,1.32,5.19,2,6.88.41-1.4-.08-2.23-.48-4.74.46-2.36-.19-9.1-1.18-13.57.78-.67-.17-5.27.21-6.73.68,0,1.3,2.79,2,2.66a16.46,16.46,0,0,0-.66-5.39c-2.35-1.92-2.33-7.54-3.71-14-.18-.88-.79-2-1-2.84-2.84-11.17-4.36-21.1-8.28-29.56-.93-4.87-3.77-12.18-6.92-18.68-.08-1.69-1-4.56-2.18-7.58.72-.27-.19-2.71-.61-4.46-1-1.84-1.47-1.82-2.45-3.58-1.85-3.51-2.37-6-3.93-9.54-4.54-10.31-13-22.17-14.63-28.13a131.72,131.72,0,0,0-9.9-14,22.67,22.67,0,0,0-3.6-6.42c.86.1,0-1.26-.25-2.09-1.83-2.52-2.41-2.48-4.37-5.16.59.09,0-.76.25-1-1.25-1.6-2.72-3.44-3-3.09s1.89,2.6,1.89,3.16c-7.67-6.51-9.77-15.12-20.06-24-.91-1.29-1.65-2.44-1.37-2.94,3.11,3,6.18,5.86,8.26,9.12a41.49,41.49,0,0,0,4.2,3.69c-1.5-1.91-3.25-4-3.12-4.67,1.85,1.69,5.08,6.38,5.95,6.28a135,135,0,0,0-14.93-18.19c-.95-1.89-4.15-5.15-7-8.09-1-.56-1.08.11-2.8-1.54-1.41-1.9-5.54-5.33-5.81-6.51-6.23-5.86-12.18-9.67-16.77-13.93-3.52-3.25-4.29-5.7-11-9.2-1.58-2.14-8.32-8.23-13.41-10.25.34-.41-1.62-1.73-4-3.14.47,1.11,4.86,3.18,4.68,4.24"/></g></g></svg>