<svg xmlns="http://www.w3.org/2000/svg" viewBox="0 0 620.37 635.99"><defs><style>.cls-1{fill:#c0c0c1;}</style></defs><title>Asset 2</title><g id="Layer_2" data-name="Layer 2"><g id="Layer_1-2" data-name="Layer 1"><path class="cls-1" d="M154.36,55.6c4-2.08,7-2.93,7.78-1.33-2.32,2.38-7.81,4.76-9.35,4.47-1.57-.52,2-2.36,1.57-3.14m56.27-26.46c8-5.08,11.1-3.1,0,0M338.68,13.59c6.46-.26,10,3.73,20.45,4.94-2,1.71-12.25-1.18-17.79-2.23.34-1.1.58-2.2-2.66-2.71m-39,577c-.67,1-7.58.12-10.75.26-2.32-2.26-11.9-2.84-16.59-4.81,10-1.64,20.26,3.26,27.34,4.55m105-20.23c3.43-1.15,5.64-1.41,10.13-3.6-.55,1.9-10.3,6.46-10.13,3.6m25.68-10.26c3.36-1.75,6.57-3.44,8.4-3.83.4,1.53-8.37,5.55-8.4,3.83m45.87-25.47c-1.1-1.6,8.58-7.37,9.82-7.64.55,1.63-8.3,7.88-9.82,7.64M440.55,38.77c-1.79-.56-10.39-5-9-6.24,3.87.77,10.36,5,9,6.24M506.2,82.85c-1,1.2-5.11-3-8.93-6.38,1.84.22,5,2.47,8.93,6.38m-27-21.24c-3.45-1-8.83-6.62-12.59-9.06,3.45-.24,10.7,6.09,12.59,9.06m-36.92-26.1c10.12,5,12.15,8.4,16.27,12.28-5.84-2.72-17.58-10.17-16.27-12.28m100.34,91.95c-10.08-15.63-22.1-27.39-32.31-39.9,4.88,1.37,12.23,10.27,17.6,17.79,2.33.54,6.57,5.4,9.83,10.54s5.59,10.46,4.88,11.57m-268,466.73c10.61.63,15,2.29,20.24,3.79-6.31,2.25-19.87-1.27-20.24-3.79M544.06,120.68a50.3,50.3,0,0,1,7.3,12.49,49.79,49.79,0,0,0,7.11,12c2.7,4.19-1.66,1.64,1.56,6.39,2.07,3.45-.38-2.3,1.61-.9,8.14,12.32,7.67,16.85,9.54,25l-27.54-50.81c.27-1.3-1.21-3.94.42-4.17M392.12,586.56c-5.86,1.08-11.51,1.86-17.41,2.59,2.33-1.09,13.7-3.57,18.36-4.83.92.72-.68,1.5-.95,2.24M442.19,566c-5.28,3-9.17,4.52-11.81,4.91-.05-1.55,10.47-5.56,11.81-4.91M306.05,601.67c-4-.29-8.55-.56-7.94-2.27,5.62-.07,8.26.61,7.94,2.27m185.53-67.82c-3.65,3.12-8.92,7.69-13.88,11.22s-9.51,6.09-11.37,5.56c9.1-6.46,17.27-12.11,25.25-16.78m14.49-12.53c-.63,1.92-9.41,9.42-9,6.73,3.47-2.87,5.6-3.73,9-6.73m-75.95,52.79c-8.11,5-17.79,6-22,5.36,8.5-4.48,15.88-4.08,22-5.36M530.42,94.77c4.49,5.12,6.08,8.47,10.35,12.38-.53.67-2-.94-2.48-.14-4.42-5.48-9.14-10.75-7.87-12.24M248.29,600.63c-4.56-.84-7.41-2-5.91-3.42,4.41.92,6.59,2,5.91,3.42m224.36-49.22c-.52-1.08,3.93-3.79,7.38-6.33,1,1.7-4.07,5.6-7.38,6.33m29.61-22.31c-2,3.43-10.14,8.77-12.72,9.95.94-3.27,10.13-8.71,12.72-9.95m17.43-14.5c-5.83,6.48-6.62,3.93-11.74,8.77,1.32-2.14,4.64-5.35,7.48-8.43.75,1.14,4.48-3.22,4.26-.34m2.44.17c-1.2-.52,1.53-3.27,3.5-5.66a6.11,6.11,0,0,0,2.9-1.78c-1,3-2.56,3.43-6.4,7.44m-.8,1.46c-.84,2.2-9.13,9.39-10,8.43,3.75-3.33,7-6,10-8.43m82.86-153a109.7,109.7,0,0,1-7,23.44c-2.34,11-8.05,26-15.33,40.61s-15.93,29-22.37,40.3c-3.12,2.39-8.06,9.87-13.85,17.33s-12.33,14.95-17.37,17.88c6.69-8.09,11-11.92,16.19-18,1.13-2.64-2.57.1-.29-4.2,3-3,3.79-3.51,3.79-1.22,2.79-5.52,5.63-6.95,9.59-13,.64-2.91.62-5.19,4-10.73,1.58-.24,7.18-7.68,11.62-15.78s7.81-16.69,6.61-18.15c6.12-8.73,10.45-20.12,13.94-30.87s6.29-20.86,10.4-27.55m-1.46-2c.38-9.11,4-16.16,5.42-23.83.4,6.66-2.37,20.5-5.42,23.83m-35.12,96c.81,1.94-2.7,4.46-5.67,10-.3-.52-.87-.16-1.65.84-.28-.31,5.77-8.95,7.32-10.81m20.76-39c.33-4.63,3.62-5.42,4.24-10.67,2.35,1.17-2.37,7-4.24,10.67m16-41.51c-1.53,6.26-3.24,9.86-4.88,10.6,1.74-5.81,3.23-10.81,4.88-10.6M553.73,485.55c-2.08,2.11-5.39,7.11-6.13,5.75,2.64-3.28,5.2-6.68,6.13-5.75M609.36,367.7c-1.17,3.49-2.44,6.27-3.79,5.94,1.21-4.25,2.48-5.15,3.79-5.94M467.73,567.85l-4.3,2.63c-3.12.84.42-1.23-1.19-2,4-2.47,4.7-1.55,5.49-.65M589.2,431.25c-2.65,4.36-3.52,8.31-7.06,13.31-2.08,0-.08-4.24,1.68-8.45.83,2.16,3.54-6.27,4.81-6.93,0,.93,0,1.87.57,2.07M484.92,557.51c-1.39.53-1.55-.45-3.55.8,1.46-2.8,8.87-7.35,12.12-8.86-.54,1.82-4.6,5.06-8.57,8.06M183,595.85c5,1,9.6,4.86,13.65,6.95-3.44.92-14.26-5.2-13.65-6.95M468.51,60.6c6.19,2.93,12.76,8.23,17.9,13.69s8.94,11,10.24,14.15C485.31,79.15,478,68.93,468.51,60.6m40.54,445.68c-2,6-14.3,13.87-20,17.09-1.8-.34,2.65-3.4.85-3.75,3.46.68,12.17-7.07,19.17-13.34M151.57,579.93c4.24,2.2,10.44,5.47,15.51,8.53s9,6,8.45,7.86a25.39,25.39,0,0,1-3.33-.91c-5.07-4.49-18-10.86-20.63-15.48m274.19,21.4c3.68-2.2-2.39-.87.91-2.39,7.36-2.74,14.67-6.83,18.18-5.73,12.61-7.27,24.16-13.56,24.1-16.88,3.68-1.93,7.66-4.31,8.27-3-5.64,3.38-9,5.82-9.56,7.54,3.59-1.78,4.75-1,8.36-2.94.66-2.57,1.43-5,9.78-10.31-3.41.66-5.11,1.88-5.81.58-10.87,6.81-16.05,8.62-23.12,14.57-3.92.34-12.79,5.08-17.91,6.09-1,2.23-6.3,4.52-11.52,6.59s-10.34,4-10.84,6c-15.08,3.33-27,3.83-44,6.27-9.46,4.41-24.22,5-29.86,3.6-2.82,1,3.43,2-4.66,2.91-1.07-2.34,1.35-2.36-3.81-4.22,6.51-1.16,10.85-.69,15.8-.34a54.74,54.74,0,0,0,19.14-1.65c3.13-4.35,17.88-3.88,25.84-6.89-.35,1.64,3.38.64,2.58,2.58a89.46,89.46,0,0,1,14.7-4.1c.72-3.2-10.37,1.88-12.37.43,11.34-3.79,21-7.4,23.18-5.16,3.68-1.8,11.51-4.37,12.19-5.86-2.85.85-5.68,1.63-5.54,0,13.5-5.39,22.82-8.21,32.16-11.22,3.72-3.34-4.79-.54,1.27-4.49,8.32-4.57,14.23-4.74,19.46-10.27-3,1.89.56-2.31,3.35-4a76.25,76.25,0,0,0,17.37-11.73c4.94-4.26,9.92-8.94,17.37-15-.77-2-4.46,2.81-3.1-.89-2.44,2-7.08,7.25-6.83,4.94,7.16-8.59,11.95-8.52,12.72-6.06,3.36-5.38,13.85-15.41,18-18-1.9.16.69-2.59-.61-2.81-5.41,5.73-11.24,11.33-13.44,10.41,4.16-6.48,9.06-7.87,14.26-14.17-2.08.14.58-2.86,1.83-5a63.63,63.63,0,0,0,13.43-14.88c2.26-.63,1.47.06.87,2.7,5.86-8.62,9.45-12.09,13.59-17.24-1.66-1.56-6.74,7.41-9.82,9.64.12-2.3-4.05,1-2.26-1.59,4.74-5.06,5.25-5.8,8.32-6.49,2.31-8.37,9.56-9.24,15.4-22.16-4,4-7.62,6.28-12.38,12.21-1-1,3.6-7.46,5.91-12-.28,4.47,1.82-1.53,4-3.49-.86,1.79-2.33,4.11-2,4.62,4.92-11.22,12.53-14.5,16.57-27.41-1.1.65-3.22,7.35-4.27,7.32-2.59-.44,2.69-8.82,3-11.49-1,1.86-1.88,2.89-2.58,2.52,1-3.24,1.2-6.59,3.39-9.4-.08,2.57-.93,8.29,2.18,4.5,2.63-6.16-1.55-3.4-.55-7.45,3.81-11.27,3.93-4.91,6.58-10-2.62.25.48-3.5,1.72-8.27-.58-.47-1.8.08-1.29-2.12,2.11.5,2.28-7.25,3.65-11.12,2.65-2.65,3.4-8.06,6.12-15.75-1.21-1.59-1.69-4-2.51-3.91.8-6.58,2.68-.18,3.5-6.16-.6-.19-1.13.63-1.66,1.43,1.55-4.13,5.67-14.43,4.13-18-2.23,5.38-4,19.37-7.47,15.65-2.1,4.73-1.9,17.38-5,17.43,4.41-17.55,7.06-28.72,6.35-40.46,3.39-1,1.35-14.67,4.45-16.15.56.7.83,2.18.65,5-2.32-1.83-3,11.93-1.73,9.82-1.46,5.74-4,14.63-2.72,18,2.06-10.14,4.64-17.15,6.61-24.55a63.71,63.71,0,0,0,1.73-26.5c1,11.66-2.68,5.92-2.94,13.3,0-9,1.75-15.61.86-23.25a6.2,6.2,0,0,1-.82,3.33c-.42-3.72-.75-8.42-1.45-11.51.88-2.91.66-8.66,2.57-8.56.16,3.38-.2,12.42,1,15-.07-3.1,1.53-1.11,1.68-3.46.13-10-2.09-9.09-3-14.89.25-5.35.61-13.85-2.31-23.36.22,10-.66,22.42-1.24,37,2.21,8.95,1.6,18.94-.1,28.33s-4.51,18.2-6.35,25.41c.88-13.24,2.27-20.32,3.85-26.9S614.33,292.88,614,282l-2.31.11c-.53,2.1-.15,7.08-.11,11.41-1.65-5.33-.86,6.3-2.29,6.52a108.92,108.92,0,0,1,.93-18.63,92.38,92.38,0,0,0,.81-19c-1.4.5-1.42,4.41-2.1,6.83-1.9-8.33-1.66-17.28-3-25.91.6,0,1,1.94,1.64,1.34-1-8-1.64-14.45,0-16.73,1,1.41,1.85,4.11,2.75,6.16a109.14,109.14,0,0,0,.09,13.46c1-.12,1.65-6,1.4-12.69s-1.39-14.25-3-17.54c.83,3.8,1.6,7.71-.18,6.94-.59-.23-1.11-1.64-1.69-3-1.37-5.47-.94-12.15-3.54-16.27a57.75,57.75,0,0,1-.5,17.27c.6.13,1.22-.58,1.75,1.28-.68,1.82.55,7.11.36,10-1.53-1.25-2.77-7.84-4.29-12.42-.73-7.71-.91-14.23-2.92-23,.75.28,1.58,1.94,2.27,1-4.21-11.69-5.75-23.56-10-35.46-1.14-.54-1.6,3-3.21-.34-.62-5.42-4.62-14.49-9.85-21.13.87,1.71.22,1.91-.41,2.11-7.3-10-8.63-17.95-15.16-27.81-2.06,1.28,2.74,7.36-2.08,3.5,11.29,18.4,22.94,35.81,30.32,53,6.81,16.13,6.68,26,8.49,38.78a178.14,178.14,0,0,1-6.55-22.77c-1.45-6.44-2.68-12.45-5.63-19.8-1.85,1.89,1.57,10.41,3,13-2.62-2.49-5.05-9-7.31-14.63l1.68-.78c-4.15-8.15-4.55-11.87-8.8-19.44-3.45-3.5.28,3.49-2,3-3.13-5.74-6.38-11.33-9.84-16.85,3.42,1.05-3.53-7.15-3.79-9.24-1.62.17,1.91,4.77-.5,4.27-9-9.41-8.83-17.63-14.66-23.47,1.55,3,2.17,5.26,1.75,6.81-5.68-5.41-7.61-12.29-13.58-16-1.37-3.29-.78-2.37,1-3-3.41-4.28-4.58-7.15-10.4-12.57-1.53,1.31-5.8-2.89-10.31-7.46s-9.23-9.6-10.87-10.45c2.22,3.26,2,5.93,5.46,8.51-4.94-1.21-8.42-10.14-13.7-11.16,3.66,3.33,4.62,8.15,3.73,7.92-6.38-4.75-10.51-9.91-14.85-11.92-3.11-.1,5.34,4.27,4.19,5-8.83-5.62-20.67-15.06-14.76-14.82-4.4-3.16-3.21.27-8.78-4.11-.8.84,1.35,2.56,1.43,3.66-6.74-3.8-16.49-8.55-24.85-12.8s-15.28-8.18-16-11.52C411.11,17.8,404.36,9,393.74,8.63c7.1,3.12,17.59,7,18.3,10.08-8.39-2.69-14.71-6.37-21-9.73S378.61,2.6,370.85,1.73c-2.67,1.7,11,5.2,6.77,5.52C374,6.33,362,0,353.17.88c3.61,1.23,7.9,2.51,5.56,4.34-4.41-.65-13.75-1-17-2.43.16-.74,4.35.38,4.77-.21-8.83-1-16.56-1.5-28.07-2.58.1,1.16,2.81,1.62-.14,2.31,2.29.82,8.82.79,7.57,2.42-14.81-.62-24.58-7.36-35.5-3.28,3.71.17,7.24.48,7.79,1.7-14.18,1.8-21-1.85-34.24-.59,2.85,2.25,13.31,1.46,18.92,2.95a61.7,61.7,0,0,1-12.13,1.88C268.79,5.56,262,5,255,5.7s-14.1,2.49-16.6,4.39c11-2.29,19.34-2.54,24.7-1.38-3.61,1.48-10.66,2.48-18,3.79-3.9,1.78,3.23,1.93-2.41,3.31-8,1.72-8.26-.89-18.12,2.37-4.06,1.9,5.08.79.72,2.68-6.86,1.06-13.23,1.83-23.43,5.93-.54,1.07,4.83.32.79,2.17-9,1.37-19.78,7.11-23,11-6.62,1.42-10.71,4.14-14.8,7.17s-8.21,6.39-15.06,9.6c1.47.85-1.64,2.86-5.27,5.14s-7.77,4.84-8.51,6.33c1.53,1.56,8.59-3.95,12.52-5.18-4.86,4.21-11.18,9.19-12.55,12.64,4.15-3.2,6.17-3.43,10-5.94,3.65-2.89,4.36-4.92,7.26-7.49,2.14-.28,7.74-4.42,10.47-5.15,2.33-1.69-1.59-2.08,1.17-3.85,5.47-3.75,14.34-6.54,21.51-9.22-3.93-.6-10.88,1.5-18.74,5.08,12.14-8.45,26.33-9,36-13.11-.71-2.17-13.43,3.42-6.82-1.37-4.45.8-6.52,3.32-8.61,2.55q6.86-3,13.83-5.52c.19,2.25,7.84-1.19,13.21-2.56,2.19-2.46,7.2-3.87,12.34-4.79s10.42-1.39,13.3-2.45c-3.85-.57-10,.36-12.46-.88,6.24-2.1,12.31-2.33,18.73-2.55S260.39,18,268.51,16c.33-1-2.1-.68-3.14-1,8.53-.47,19-1.18,25.39-.08,5.76-3.19,14-2,21.82-.2s15.45,4.07,21.14,2.49c-4.79-2.13-13.24-2.57-17.63-3.39,4.55-.65,14.54.89,23.74,2.31,1.43.82,1.21,1.9,2.62,2.72,8.18.87,10.66,2.69,17.26,4.11,0-1.16.22-2.27,3.4-1.62,7.62,1.52,10.52,3.48,17,5.39-2.8-4-17-7.3-20.39-10.86,9.82,1.2,17.09,6.36,30.06,10,1.2,2.67,7.7,5.44,15.9,8.76.19-2.68-10.33-6.07-15.9-8.76,4.32.14-.51-1.88-.58-3.11,10.56,3,13.65,8.06,22,10.16.76-2.22-11.13-5.4-10.09-7.47,15.37,5.81,30.8,11.92,44.29,19.48s24.92,16.5,31.82,26.87c-5.1-2-9.78-7.53-15.1-10,4,5.86,12.88,12.29,21.36,19.49s16.6,15,19.5,21.92c1.46-1.39-3.92-6.46-2.55-7.87,10.18,8.47,13.29,17.84,20.37,27.61,2.45.18-.3-5.54,3.82-1.13,8.54,12.7,9.91,20.36,16,30.48.17-4.67-5.73-14.11-5.08-18,5.1,8.61,6.08,14,12,24.32.57-1.08.49-4.25,3.15-.06,3.52,6.84,4.39,14.14,7.86,19.54,1.55-1.69.12-6.74-2.26-12.43s-5.67-12-7.33-16.58c-2.23.13,2.93,7.12.24,6.83a133.42,133.42,0,0,1-8-15.36,77.79,77.79,0,0,0-7.77-14c-1.6-.39,1.51,5.48-.95,2.62-7.25-8.84-7.67-12.46-13.92-19.81-4-1.15-8.33-6.16-12.17-11.41a107.92,107.92,0,0,1-8.31-13.19,239.14,239.14,0,0,1,29,31.28c2,1.38,3.25,1,5.62,3.42A288.88,288.88,0,0,1,560.91,162a224.08,224.08,0,0,1,18.52,45.34c.83-3.74-.51-10.54-2.46-17.61s-4.43-14.39-5.24-19.52c2.39,6.78,4.81,10.3,7.77,15.55-2.82-8.71-4.3-13.63-8.71-18.61-.74-4.3-1.7-9-7.14-17.66-.61,5.19-5.48-8.39-9.72-12.65,1.18.34,1.27-3.08,3.2-.13,9.32,15.75,17.35,30.14,23.85,44.18s11.42,27.71,13.88,41.61c2.55.93,2.68-2.67,5.19,3.69-1,12.17.76,25.19,4.4,44.93-1.91-4.09-1.26,9-.56,12.87.71.23,1.68-.67,1.93,1.53,1.44,16.82-4.65,30.58-1.66,41.64-2.08,3.17-3.15,12.79-5,20.32-.06,4.43,2.34-2.48,2,1.93-.53,3.18-1.13,6.29-1.76,9.45-.57-.18-.23-2.12-1-1.82-1.07,7.29-2.7,7.3-4,13.79-1,3.51.87,2,.16,5-2.54,6-5.47,15.91-9.15,25.78s-8.05,19.7-12.21,25.73c-3.56,13.55-10.95,18.61-17.52,28.26,2.4,1.83,5.31-8.19,7.26-6.75-4.45,8.79-13.84,18.27-16,25.68-13.17,14.35-27.19,30.05-44,45.06s-36.31,29.25-59,39.69c-5.45,5.08-12.71,7.13-21.21,10.11-18.5,8.69-33.65,12.44-52.05,16.49-12.19,2.62-26.57,5-39.27,5.46s-23.59-.8-28.66-4c10.76.51,17.46,2,24.49,1.07-3.6.2,0-1.72,1.36-2,14.49,1.5,36-2,53.23-6.92-2.64.65-3.63.18-3.47-.94,6.2-1.83,11.62-3.44,13.6-2.68-2.53.81-3.63,1.53-4.12,2.29,23.35-5,45.39-14.57,65.26-26.17s37.74-25.15,54.41-38.42c3-5.52,10.36-12.66,17.44-20.19s13.9-15.36,16.51-20.87c4.12-3.6,9.37-11.06,13.78-17.21-6.15,6.52-18.14,15.57-22.92,23.95,2-1.29,5.2-6.19,6.18-5.06-5.4,6.87-12.4,16.08-18.46,22.54s-10.92,10.29-11.2,7.09c2.95-3,8.25-5.81,9.84-9.77-3.28,3.79-4,2.31-6.56,4.38,5.18-4.72,3.17-5.24,7.53-9.66,1.64,1.1,6.26-4.58,9.65-7.94-6.18,5.3-10.63,6.47-18.51,14.29-2.87,3.16.32,2.89-3.93,6.74-4.6,3.69-9.3,7.14-12.89,8.55,1.2,2.1,9.87-4.11,7.44,1.3-3.27,2.7-4.36,1.62-6.37,2.09-11.91,12.31-22.27,19-33.54,23.88-1.14,1.16,1.89.88-2.78,4.06-7.2,4.61-11.79,5.85-17.93,8.66-2.16,1.51,1.17,1.86-1.55,3.49-14.83,6.69-27.54,13.89-41.41,15.54-.78,1.57,5.23.82,1.09,3a237.89,237.89,0,0,0-27.18,5c3.6-.88.72,1.41-1.14,1.72-9.39,1.45-23.85.77-31.6,4.64-5.15.4-8-.26-13.66.12a71,71,0,0,1-28.45-.39c-8.53-1.73-16.17-4.37-23.71-6.26l.23-2.3c-8-.43-11.17-2-18.78-2.89.32,3.25-6.21.25-10.54.42,3.53,1.1,5.46,2.35,9.94,3.23-.09-1.36.23-2.51,4.72-1.61,2.94,2.33,9.58,4,15.78,5.35s12,2.42,13.13,4.36c-11.36,0-18.32-3.91-25.22-4,4.51,1-1.81,1-3.14,1-7.52-1.26-9.59-3.36-17.39-4.92-1.15,1.6,3.36,2.62,3.78,4.05,13.92,3.34,23.52,6.37,30.95,9.77-14-.73-17.18-4-27-6.22-.35.64.27,1.78-1.79,1.56-13.13-1.91-14.67-5.16-24.81-8-4.38-.6,6,3,.85,2.62-9.56-3-14.92-6.37-22.46-10-4.86,2.5-17.45-6.18-23.83-9.87-2.36,1.32,4.89,4,2.61,5.27-6.9-4.62-17.28-11.25-27.87-18.49s-21.44-15-30.29-20.88c10.41,7.92,19.66,16.78,29.92,23.74,5,3.39,12,7,17.77,10.39s10.39,6.43,10.39,9.26c-3.68-1.57-6.88-2.86-8.91-3.09,5.28,4.35,12.44,7.73,20,10.88s15.47,6.1,22.53,10c-2.24-3-8.46-6-14.66-9.35s-12.4-6.92-14.82-10.18c14.1,4.22,18.36,10.74,30.81,15.1.76-1.46-6.7-3-5.1-4.48,7.08,2.32,16,5.81,23.69,9s14.07,6.18,15.57,8.17c-10.58-3.36-17.45-5.38-28.38-10.07-1,.9,2.47,1.71.89,2.63,7.35,1.58,9.89,3.16,11.85,4.83-3.24.78-9.06,0-8.86,2.65,13.45,3.57,21.86,8.41,35.9,11,11.66,2.06,24.5,2.71,36.71,3s23.86.46,33.69,2.1a10.61,10.61,0,0,1-4.83,1.83A122.22,122.22,0,0,1,303,611.89c-1.49.83-5.79.87-8.28,1.36-11.18-1.34-21.65-2.94-32.8-4.91s-23-4.35-36.85-7.83c-3.9-1.36-5.87-2.8-10.66-4.27-14.55-4.26-29.86-11.33-44-19.37s-27.32-17-38.73-24.34c-2.66-3.63-7.93-8.2-12.49-12.75-.05,1.42.71,2.56-2.67.89C82,512.72,54.93,477.94,38.12,442c-9.25-19.55-15.92-40.83-22.61-59.94a151.19,151.19,0,0,0,7.19,39.37c3.56,5.81,6.57,13.08,9.25,20.11s5,13.84,6.68,18.66c-1.26.55-4.3-5.47-5.38-4.37.64,5.23,9.62,18.08,14.27,21.85-1.1-2.22-1.07-3.54,0-4,4.56,6.81,9.55,13.34,8.77,15.7-.54,1.06-3.31-3.4-4.09-3,10.88,14.11,23,31.34,39.25,46.34,2.88,1.44-.74-2.56,3.7.79a201.71,201.71,0,0,0,17.56,20c7.08,6.91,15.44,13.44,24.46,17.84,1,2.36,5.62,5.67,9.72,8.68s7.68,5.79,6.4,7.58c17.72,8.57,35.85,16.66,53.82,23.68s35.76,13,52.35,17.61c-4.5-.69-1.54,1.63-7.1.47-3.07-1.35-15.23-4-17.44-2.49-1.82-1.08-5.47-2.11-4.73-3.34-25-7.45-50.65-16.95-73.21-29S115.13,568,102.58,553.35c-9.45-4.52-21.21-13.89-31.5-25a176.43,176.43,0,0,1-24.54-33.44q-2.07-1.5-4.19-3.18c-.5-3.58-1.91-7.93-1.82-11.12-2.26-3.19-4.44-6.42-6.58-9.69-2.3-2.42-2.42,2.25-5.43-2.47C20.28,455,17.06,440.42,8.61,429.61c1.44.13-2.16-5.92-1.44-6.71-2.6-4.68-5.07-10-7.17-11.59a305.09,305.09,0,0,0,33.43,74.16C47.79,508.84,64.82,529.72,81.08,547c13.63,8.36,21.33,20.19,34.44,29.82,2.91,2.15,7.67,4.33,10.58,6.19a369.26,369.26,0,0,0,50.64,27.54,263.69,263.69,0,0,0,57.84,18.13c4.27.55,4-1,10.67.51,6.41,1.15,5.94,3,15.55,3.58,1.47-.86-7.9-2.45-1.5-2.51,7.13,3.17,20.14,5.14,34.09,5.59s28.81-.55,39.87-1.51l-.18-1.84c-11,.7-24.79-2.16-33.45-2.55,3,.4,4.82,1.68,0,1.85-17-2-35.9-5.54-40.82-11.39,2.5.08,8.69,1.54,8.51.5-2.44-.92-9.65-1.23-8.22-2.79,3-1.66,12.2,1.15,16.86,1.69-1.08-1.33,3.53-.63,5.14-1,9.56,1.46,18.9,2.59,28.72,3.18,1.49-1.52-4.41-.85-5.11-1.74,13.62-1,16.45,1.11,27.2.33-.32-1.13-3.35-1.13,1.52-2,10.79-1.24,13.71.54,22.27-.27.18-.56,2.56-.94,4.95-1.36-1.48-2.94-17.66.64-20.82-1.89,7.72-1.65,12.12-1.12,17.12-.64a48.61,48.61,0,0,0,20.19-2c1.26-3-8.86.08-10.74-1.35,11.75-2.77,17.83-3.06,22.14-2.13-5.2,1.23-6.55,2.37-7.88,3.56,4.85-.55,8.13-.19,15.35-2.4,1.05-2.55-8,1.12-7.47-1.16a165.15,165.15,0,0,1,19.08-3.51,90.46,90.46,0,0,0,18.14-4.06"/></g></g></svg>